solid OpenSCAD_Model
  facet normal 0 0 -1
    outer loop
      vertex -11 0 0
      vertex -10.9783 0.690696 0
      vertex -10.9783 -0.690696 0
    endloop
  endfacet
  facet normal 0 0 -1
    outer loop
      vertex -10.9783 -0.690696 0
      vertex -10.9783 0.690696 0
      vertex -10.9133 1.37867 0
    endloop
  endfacet
  facet normal 0 0 -1
    outer loop
      vertex -10.9783 -0.690696 0
      vertex -10.9133 1.37867 0
      vertex -10.8052 2.06119 0
    endloop
  endfacet
  facet normal 0 0 -1
    outer loop
      vertex -10.9783 -0.690696 0
      vertex -10.8052 2.06119 0
      vertex -10.6544 2.73559 0
    endloop
  endfacet
  facet normal 0 0 -1
    outer loop
      vertex -10.9783 -0.690696 0
      vertex -10.6544 2.73559 0
      vertex -10.4616 3.39919 0
    endloop
  endfacet
  facet normal 0 0 -1
    outer loop
      vertex -10.9783 -0.690696 0
      vertex -10.4616 3.39919 0
      vertex -10.2275 4.04937 0
    endloop
  endfacet
  facet normal 0 0 -1
    outer loop
      vertex -10.9783 -0.690696 0
      vertex -10.2275 4.04937 0
      vertex -9.9531 4.68357 0
    endloop
  endfacet
  facet normal 0 0 -1
    outer loop
      vertex -10.9783 -0.690696 0
      vertex -9.9531 4.68357 0
      vertex -9.63937 5.29929 0
    endloop
  endfacet
  facet normal 0 0 -1
    outer loop
      vertex -10.9783 -0.690696 0
      vertex -9.63937 5.29929 0
      vertex -9.28761 5.8941 0
    endloop
  endfacet
  facet normal 0 0 -1
    outer loop
      vertex -10.9783 -0.690696 0
      vertex -9.28761 5.8941 0
      vertex -8.89919 6.46564 0
    endloop
  endfacet
  facet normal 0 0 -1
    outer loop
      vertex -10.9783 -0.690696 0
      vertex -8.89919 6.46564 0
      vertex -8.47565 7.01166 0
    endloop
  endfacet
  facet normal 0 0 -1
    outer loop
      vertex -10.9783 -0.690696 0
      vertex -8.47565 7.01166 0
      vertex -8.01865 7.53002 0
    endloop
  endfacet
  facet normal 0 0 -1
    outer loop
      vertex -10.9783 -0.690696 0
      vertex -8.01865 7.53002 0
      vertex -7.53002 8.01865 0
    endloop
  endfacet
  facet normal 0 0 -1
    outer loop
      vertex -10.9783 -0.690696 0
      vertex -7.53002 8.01865 0
      vertex -7.01166 8.47565 0
    endloop
  endfacet
  facet normal 0 0 -1
    outer loop
      vertex -10.9783 -0.690696 0
      vertex -7.01166 8.47565 0
      vertex -6.46564 8.89919 0
    endloop
  endfacet
  facet normal 0 0 -1
    outer loop
      vertex -10.9783 -0.690696 0
      vertex -6.46564 8.89919 0
      vertex -5.8941 9.28761 0
    endloop
  endfacet
  facet normal 0 0 -1
    outer loop
      vertex -10.9783 -0.690696 0
      vertex -5.8941 9.28761 0
      vertex -5.29929 9.63937 0
    endloop
  endfacet
  facet normal 0 0 -1
    outer loop
      vertex -10.9783 -0.690696 0
      vertex -5.29929 9.63937 0
      vertex -4.68357 9.9531 0
    endloop
  endfacet
  facet normal 0 0 -1
    outer loop
      vertex -10.9783 -0.690696 0
      vertex -4.68357 9.9531 0
      vertex -4.04937 10.2275 0
    endloop
  endfacet
  facet normal 0 0 -1
    outer loop
      vertex -10.9783 -0.690696 0
      vertex -4.04937 10.2275 0
      vertex -3.39919 10.4616 0
    endloop
  endfacet
  facet normal 0 0 -1
    outer loop
      vertex -10.9783 -0.690696 0
      vertex -3.39919 10.4616 0
      vertex -2.73559 10.6544 0
    endloop
  endfacet
  facet normal 0 0 -1
    outer loop
      vertex -10.9783 -0.690696 0
      vertex -2.73559 10.6544 0
      vertex -2.06119 10.8052 0
    endloop
  endfacet
  facet normal 0 0 -1
    outer loop
      vertex -10.9783 -0.690696 0
      vertex -2.06119 10.8052 0
      vertex -1.37867 10.9133 0
    endloop
  endfacet
  facet normal 0 0 -1
    outer loop
      vertex -10.9783 -0.690696 0
      vertex -1.37867 10.9133 0
      vertex -0.690696 10.9783 0
    endloop
  endfacet
  facet normal 0 0 -1
    outer loop
      vertex -10.9783 -0.690696 0
      vertex -0.690696 10.9783 0
      vertex 0 11 0
    endloop
  endfacet
  facet normal 0 0 -1
    outer loop
      vertex -10.9783 -0.690696 0
      vertex 0 11 0
      vertex 0.690696 10.9783 0
    endloop
  endfacet
  facet normal 0 0 -1
    outer loop
      vertex -10.9783 -0.690696 0
      vertex 0.690696 10.9783 0
      vertex 1.37867 10.9133 0
    endloop
  endfacet
  facet normal 0 0 -1
    outer loop
      vertex -10.9783 -0.690696 0
      vertex 1.37867 10.9133 0
      vertex 2.06119 10.8052 0
    endloop
  endfacet
  facet normal 0 0 -1
    outer loop
      vertex -10.9783 -0.690696 0
      vertex 2.06119 10.8052 0
      vertex 2.73559 10.6544 0
    endloop
  endfacet
  facet normal 0 0 -1
    outer loop
      vertex -10.9783 -0.690696 0
      vertex 2.73559 10.6544 0
      vertex 3.39919 10.4616 0
    endloop
  endfacet
  facet normal 0 0 -1
    outer loop
      vertex -10.9783 -0.690696 0
      vertex 3.39919 10.4616 0
      vertex 4.04937 10.2275 0
    endloop
  endfacet
  facet normal 0 0 -1
    outer loop
      vertex -10.9783 -0.690696 0
      vertex 4.04937 10.2275 0
      vertex 4.68357 9.9531 0
    endloop
  endfacet
  facet normal 0 0 -1
    outer loop
      vertex -10.9783 -0.690696 0
      vertex 4.68357 9.9531 0
      vertex 5.29929 9.63937 0
    endloop
  endfacet
  facet normal 0 0 -1
    outer loop
      vertex -10.9783 -0.690696 0
      vertex 5.29929 9.63937 0
      vertex 5.8941 9.28761 0
    endloop
  endfacet
  facet normal 0 0 -1
    outer loop
      vertex -10.9783 -0.690696 0
      vertex 5.8941 9.28761 0
      vertex 6.46564 8.89919 0
    endloop
  endfacet
  facet normal 0 0 -1
    outer loop
      vertex -10.9783 -0.690696 0
      vertex 6.46564 8.89919 0
      vertex 7.01166 8.47565 0
    endloop
  endfacet
  facet normal 0 0 -1
    outer loop
      vertex -10.9783 -0.690696 0
      vertex 7.01166 8.47565 0
      vertex 7.53002 8.01865 0
    endloop
  endfacet
  facet normal 0 0 -1
    outer loop
      vertex -10.9783 -0.690696 0
      vertex 7.53002 8.01865 0
      vertex 8.01865 7.53002 0
    endloop
  endfacet
  facet normal 0 0 -1
    outer loop
      vertex -10.9783 -0.690696 0
      vertex 8.01865 7.53002 0
      vertex 8.47565 7.01166 0
    endloop
  endfacet
  facet normal 0 0 -1
    outer loop
      vertex -10.9783 -0.690696 0
      vertex 8.47565 7.01166 0
      vertex 8.89919 6.46564 0
    endloop
  endfacet
  facet normal 0 0 -1
    outer loop
      vertex -10.9783 -0.690696 0
      vertex 8.89919 6.46564 0
      vertex 9.28761 5.8941 0
    endloop
  endfacet
  facet normal 0 0 -1
    outer loop
      vertex -10.9783 -0.690696 0
      vertex 9.28761 5.8941 0
      vertex 9.63937 5.29929 0
    endloop
  endfacet
  facet normal 0 0 -1
    outer loop
      vertex -10.9783 -0.690696 0
      vertex 9.63937 5.29929 0
      vertex 9.9531 4.68357 0
    endloop
  endfacet
  facet normal 0 0 -1
    outer loop
      vertex -10.9783 -0.690696 0
      vertex 9.9531 4.68357 0
      vertex 10.2275 4.04937 0
    endloop
  endfacet
  facet normal 0 0 -1
    outer loop
      vertex -10.9783 -0.690696 0
      vertex 10.2275 4.04937 0
      vertex 10.4616 3.39919 0
    endloop
  endfacet
  facet normal 0 0 -1
    outer loop
      vertex -10.9783 -0.690696 0
      vertex 10.4616 3.39919 0
      vertex 10.6544 2.73559 0
    endloop
  endfacet
  facet normal 0 0 -1
    outer loop
      vertex -10.9783 -0.690696 0
      vertex 10.6544 2.73559 0
      vertex 10.8052 2.06119 0
    endloop
  endfacet
  facet normal 0 0 -1
    outer loop
      vertex -10.9783 -0.690696 0
      vertex 10.8052 2.06119 0
      vertex 10.9133 1.37867 0
    endloop
  endfacet
  facet normal 0 0 -1
    outer loop
      vertex -10.9783 -0.690696 0
      vertex 10.9133 1.37867 0
      vertex 10.9783 0.690696 0
    endloop
  endfacet
  facet normal 0 0 -1
    outer loop
      vertex -10.9783 -0.690696 0
      vertex 10.9783 0.690696 0
      vertex 11 0 0
    endloop
  endfacet
  facet normal 0 0 -1
    outer loop
      vertex -10.9783 -0.690696 0
      vertex 11 0 0
      vertex 10.9783 -0.690696 0
    endloop
  endfacet
  facet normal 0 0 -1
    outer loop
      vertex -10.9783 -0.690696 0
      vertex 10.9783 -0.690696 0
      vertex 10.9133 -1.37867 0
    endloop
  endfacet
  facet normal 0 0 -1
    outer loop
      vertex -10.9783 -0.690696 0
      vertex 10.9133 -1.37867 0
      vertex 10.8052 -2.06119 0
    endloop
  endfacet
  facet normal 0 0 -1
    outer loop
      vertex -10.9783 -0.690696 0
      vertex 10.8052 -2.06119 0
      vertex 10.6544 -2.73559 0
    endloop
  endfacet
  facet normal 0 0 -1
    outer loop
      vertex -10.9783 -0.690696 0
      vertex 10.6544 -2.73559 0
      vertex 10.4616 -3.39919 0
    endloop
  endfacet
  facet normal 0 0 -1
    outer loop
      vertex -10.9783 -0.690696 0
      vertex 10.4616 -3.39919 0
      vertex 10.2275 -4.04937 0
    endloop
  endfacet
  facet normal 0 0 -1
    outer loop
      vertex -10.9783 -0.690696 0
      vertex 10.2275 -4.04937 0
      vertex 9.9531 -4.68357 0
    endloop
  endfacet
  facet normal 0 0 -1
    outer loop
      vertex -10.9783 -0.690696 0
      vertex 9.9531 -4.68357 0
      vertex 9.63937 -5.29929 0
    endloop
  endfacet
  facet normal 0 0 -1
    outer loop
      vertex -10.9783 -0.690696 0
      vertex 9.63937 -5.29929 0
      vertex 9.28761 -5.8941 0
    endloop
  endfacet
  facet normal 0 0 -1
    outer loop
      vertex -10.9783 -0.690696 0
      vertex 9.28761 -5.8941 0
      vertex 8.89919 -6.46564 0
    endloop
  endfacet
  facet normal 0 0 -1
    outer loop
      vertex -10.9783 -0.690696 0
      vertex 8.89919 -6.46564 0
      vertex 8.47565 -7.01166 0
    endloop
  endfacet
  facet normal 0 0 -1
    outer loop
      vertex -10.9783 -0.690696 0
      vertex 8.47565 -7.01166 0
      vertex 8.01865 -7.53002 0
    endloop
  endfacet
  facet normal 0 0 -1
    outer loop
      vertex -10.9783 -0.690696 0
      vertex 8.01865 -7.53002 0
      vertex 7.53002 -8.01865 0
    endloop
  endfacet
  facet normal 0 0 -1
    outer loop
      vertex -10.9783 -0.690696 0
      vertex 7.53002 -8.01865 0
      vertex 7.01166 -8.47565 0
    endloop
  endfacet
  facet normal 0 0 -1
    outer loop
      vertex -10.9783 -0.690696 0
      vertex 7.01166 -8.47565 0
      vertex 6.46564 -8.89919 0
    endloop
  endfacet
  facet normal 0 0 -1
    outer loop
      vertex -10.9783 -0.690696 0
      vertex 6.46564 -8.89919 0
      vertex 5.8941 -9.28761 0
    endloop
  endfacet
  facet normal 0 0 -1
    outer loop
      vertex -10.9783 -0.690696 0
      vertex 5.8941 -9.28761 0
      vertex 5.29929 -9.63937 0
    endloop
  endfacet
  facet normal 0 0 -1
    outer loop
      vertex -10.9783 -0.690696 0
      vertex 5.29929 -9.63937 0
      vertex 4.68357 -9.9531 0
    endloop
  endfacet
  facet normal 0 0 -1
    outer loop
      vertex -10.9783 -0.690696 0
      vertex 4.68357 -9.9531 0
      vertex 4.04937 -10.2275 0
    endloop
  endfacet
  facet normal 0 0 -1
    outer loop
      vertex -10.9783 -0.690696 0
      vertex 4.04937 -10.2275 0
      vertex 3.39919 -10.4616 0
    endloop
  endfacet
  facet normal 0 0 -1
    outer loop
      vertex -10.9783 -0.690696 0
      vertex 3.39919 -10.4616 0
      vertex 2.73559 -10.6544 0
    endloop
  endfacet
  facet normal 0 0 -1
    outer loop
      vertex -10.9783 -0.690696 0
      vertex 2.73559 -10.6544 0
      vertex 2.06119 -10.8052 0
    endloop
  endfacet
  facet normal 0 0 -1
    outer loop
      vertex -10.9783 -0.690696 0
      vertex 2.06119 -10.8052 0
      vertex 1.37867 -10.9133 0
    endloop
  endfacet
  facet normal 0 0 -1
    outer loop
      vertex -10.9783 -0.690696 0
      vertex 1.37867 -10.9133 0
      vertex 0.690696 -10.9783 0
    endloop
  endfacet
  facet normal 0 0 -1
    outer loop
      vertex -10.9783 -0.690696 0
      vertex 0.690696 -10.9783 0
      vertex 0 -11 0
    endloop
  endfacet
  facet normal 0 0 -1
    outer loop
      vertex -10.9783 -0.690696 0
      vertex 0 -11 0
      vertex -0.690696 -10.9783 0
    endloop
  endfacet
  facet normal 0 0 -1
    outer loop
      vertex -10.9783 -0.690696 0
      vertex -0.690696 -10.9783 0
      vertex -1.37867 -10.9133 0
    endloop
  endfacet
  facet normal 0 0 -1
    outer loop
      vertex -10.9783 -0.690696 0
      vertex -1.37867 -10.9133 0
      vertex -2.06119 -10.8052 0
    endloop
  endfacet
  facet normal 0 0 -1
    outer loop
      vertex -10.9783 -0.690696 0
      vertex -2.06119 -10.8052 0
      vertex -2.73559 -10.6544 0
    endloop
  endfacet
  facet normal 0 0 -1
    outer loop
      vertex -10.9783 -0.690696 0
      vertex -2.73559 -10.6544 0
      vertex -3.39919 -10.4616 0
    endloop
  endfacet
  facet normal 0 0 -1
    outer loop
      vertex -10.9783 -0.690696 0
      vertex -3.39919 -10.4616 0
      vertex -4.04937 -10.2275 0
    endloop
  endfacet
  facet normal 0 0 -1
    outer loop
      vertex -10.9783 -0.690696 0
      vertex -4.04937 -10.2275 0
      vertex -4.68357 -9.9531 0
    endloop
  endfacet
  facet normal 0 0 -1
    outer loop
      vertex -10.9783 -0.690696 0
      vertex -4.68357 -9.9531 0
      vertex -5.29929 -9.63937 0
    endloop
  endfacet
  facet normal 0 0 -1
    outer loop
      vertex -10.9783 -0.690696 0
      vertex -5.29929 -9.63937 0
      vertex -5.8941 -9.28761 0
    endloop
  endfacet
  facet normal 0 0 -1
    outer loop
      vertex -10.9783 -0.690696 0
      vertex -5.8941 -9.28761 0
      vertex -6.46564 -8.89919 0
    endloop
  endfacet
  facet normal 0 0 -1
    outer loop
      vertex -10.9783 -0.690696 0
      vertex -6.46564 -8.89919 0
      vertex -7.01166 -8.47565 0
    endloop
  endfacet
  facet normal 0 0 -1
    outer loop
      vertex -10.9783 -0.690696 0
      vertex -7.01166 -8.47565 0
      vertex -7.53002 -8.01865 0
    endloop
  endfacet
  facet normal 0 0 -1
    outer loop
      vertex -10.9783 -0.690696 0
      vertex -7.53002 -8.01865 0
      vertex -8.01865 -7.53002 0
    endloop
  endfacet
  facet normal 0 0 -1
    outer loop
      vertex -10.9783 -0.690696 0
      vertex -8.01865 -7.53002 0
      vertex -8.47565 -7.01166 0
    endloop
  endfacet
  facet normal 0 0 -1
    outer loop
      vertex -10.9783 -0.690696 0
      vertex -8.47565 -7.01166 0
      vertex -8.89919 -6.46564 0
    endloop
  endfacet
  facet normal 0 0 -1
    outer loop
      vertex -10.9783 -0.690696 0
      vertex -8.89919 -6.46564 0
      vertex -9.28761 -5.8941 0
    endloop
  endfacet
  facet normal 0 0 -1
    outer loop
      vertex -10.9783 -0.690696 0
      vertex -9.28761 -5.8941 0
      vertex -9.63937 -5.29929 0
    endloop
  endfacet
  facet normal 0 0 -1
    outer loop
      vertex -10.9783 -0.690696 0
      vertex -9.63937 -5.29929 0
      vertex -9.9531 -4.68357 0
    endloop
  endfacet
  facet normal 0 0 -1
    outer loop
      vertex -10.9783 -0.690696 0
      vertex -9.9531 -4.68357 0
      vertex -10.2275 -4.04937 0
    endloop
  endfacet
  facet normal 0 0 -1
    outer loop
      vertex -10.9783 -0.690696 0
      vertex -10.2275 -4.04937 0
      vertex -10.4616 -3.39919 0
    endloop
  endfacet
  facet normal 0 0 -1
    outer loop
      vertex -10.9783 -0.690696 0
      vertex -10.4616 -3.39919 0
      vertex -10.6544 -2.73559 0
    endloop
  endfacet
  facet normal 0 0 -1
    outer loop
      vertex -10.9783 -0.690696 0
      vertex -10.6544 -2.73559 0
      vertex -10.8052 -2.06119 0
    endloop
  endfacet
  facet normal 0 0 -1
    outer loop
      vertex -10.9783 -0.690696 0
      vertex -10.8052 -2.06119 0
      vertex -10.9133 -1.37867 0
    endloop
  endfacet
  facet normal -0.999507 0.0314108 0
    outer loop
      vertex -11 0 0
      vertex -11 0 4
      vertex -10.9783 0.690696 0
    endloop
  endfacet
  facet normal -0.999507 0.0314108 0
    outer loop
      vertex -10.9783 0.690696 0
      vertex -11 0 4
      vertex -10.9783 0.690696 4
    endloop
  endfacet
  facet normal -0.999507 -0.0314108 0
    outer loop
      vertex -11 0 0
      vertex -10.9783 -0.690696 0
      vertex -11 0 4
    endloop
  endfacet
  facet normal -0.999507 -0.0314108 0
    outer loop
      vertex -11 0 4
      vertex -10.9783 -0.690696 0
      vertex -10.9783 -0.690696 4
    endloop
  endfacet
  facet normal -0.995562 -0.0941079 0
    outer loop
      vertex -10.9783 -0.690696 0
      vertex -10.9133 -1.37867 0
      vertex -10.9783 -0.690696 4
    endloop
  endfacet
  facet normal -0.995562 -0.0941079 0
    outer loop
      vertex -10.9783 -0.690696 4
      vertex -10.9133 -1.37867 0
      vertex -10.9133 -1.37867 4
    endloop
  endfacet
  facet normal -0.987688 -0.156435 0
    outer loop
      vertex -10.9133 -1.37867 0
      vertex -10.8052 -2.06119 0
      vertex -10.9133 -1.37867 4
    endloop
  endfacet
  facet normal -0.987688 -0.156435 0
    outer loop
      vertex -10.9133 -1.37867 4
      vertex -10.8052 -2.06119 0
      vertex -10.8052 -2.06119 4
    endloop
  endfacet
  facet normal -0.975917 -0.218143 0
    outer loop
      vertex -10.8052 -2.06119 0
      vertex -10.6544 -2.73559 0
      vertex -10.8052 -2.06119 4
    endloop
  endfacet
  facet normal -0.975917 -0.218143 0
    outer loop
      vertex -10.8052 -2.06119 4
      vertex -10.6544 -2.73559 0
      vertex -10.6544 -2.73559 4
    endloop
  endfacet
  facet normal -0.960294 -0.278991 0
    outer loop
      vertex -10.6544 -2.73559 0
      vertex -10.4616 -3.39919 0
      vertex -10.6544 -2.73559 4
    endloop
  endfacet
  facet normal -0.960294 -0.278991 0
    outer loop
      vertex -10.6544 -2.73559 4
      vertex -10.4616 -3.39919 0
      vertex -10.4616 -3.39919 4
    endloop
  endfacet
  facet normal -0.94088 -0.338739 0
    outer loop
      vertex -10.4616 -3.39919 0
      vertex -10.2275 -4.04937 0
      vertex -10.4616 -3.39919 4
    endloop
  endfacet
  facet normal -0.94088 -0.338739 0
    outer loop
      vertex -10.4616 -3.39919 4
      vertex -10.2275 -4.04937 0
      vertex -10.2275 -4.04937 4
    endloop
  endfacet
  facet normal -0.917755 -0.397147 0
    outer loop
      vertex -10.2275 -4.04937 0
      vertex -9.9531 -4.68357 0
      vertex -10.2275 -4.04937 4
    endloop
  endfacet
  facet normal -0.917755 -0.397147 0
    outer loop
      vertex -10.2275 -4.04937 4
      vertex -9.9531 -4.68357 0
      vertex -9.9531 -4.68357 4
    endloop
  endfacet
  facet normal -0.891006 -0.453992 0
    outer loop
      vertex -9.9531 -4.68357 0
      vertex -9.63937 -5.29929 0
      vertex -9.9531 -4.68357 4
    endloop
  endfacet
  facet normal -0.891006 -0.453992 0
    outer loop
      vertex -9.9531 -4.68357 4
      vertex -9.63937 -5.29929 0
      vertex -9.63937 -5.29929 4
    endloop
  endfacet
  facet normal -0.860742 -0.509041 0
    outer loop
      vertex -9.63937 -5.29929 0
      vertex -9.28761 -5.8941 0
      vertex -9.63937 -5.29929 4
    endloop
  endfacet
  facet normal -0.860742 -0.509041 0
    outer loop
      vertex -9.63937 -5.29929 4
      vertex -9.28761 -5.8941 0
      vertex -9.28761 -5.8941 4
    endloop
  endfacet
  facet normal -0.827081 -0.562083 0
    outer loop
      vertex -9.28761 -5.8941 0
      vertex -8.89919 -6.46564 0
      vertex -9.28761 -5.8941 4
    endloop
  endfacet
  facet normal -0.827081 -0.562083 0
    outer loop
      vertex -9.28761 -5.8941 4
      vertex -8.89919 -6.46564 0
      vertex -8.89919 -6.46564 4
    endloop
  endfacet
  facet normal -0.790155 -0.612907 0
    outer loop
      vertex -8.89919 -6.46564 0
      vertex -8.47565 -7.01166 0
      vertex -8.89919 -6.46564 4
    endloop
  endfacet
  facet normal -0.790155 -0.612907 0
    outer loop
      vertex -8.89919 -6.46564 4
      vertex -8.47565 -7.01166 0
      vertex -8.47565 -7.01166 4
    endloop
  endfacet
  facet normal -0.750111 -0.661312 0
    outer loop
      vertex -8.47565 -7.01166 0
      vertex -8.01865 -7.53002 0
      vertex -8.47565 -7.01166 4
    endloop
  endfacet
  facet normal -0.750111 -0.661312 0
    outer loop
      vertex -8.47565 -7.01166 4
      vertex -8.01865 -7.53002 0
      vertex -8.01865 -7.53002 4
    endloop
  endfacet
  facet normal -0.707107 -0.707107 0
    outer loop
      vertex -8.01865 -7.53002 4
      vertex -8.01865 -7.53002 0
      vertex -7.53002 -8.01865 0
    endloop
  endfacet
  facet normal -0.707107 -0.707107 0
    outer loop
      vertex -7.53002 -8.01865 4
      vertex -8.01865 -7.53002 4
      vertex -7.53002 -8.01865 0
    endloop
  endfacet
  facet normal -0.661312 -0.750111 0
    outer loop
      vertex -7.53002 -8.01865 4
      vertex -7.53002 -8.01865 0
      vertex -7.01166 -8.47565 0
    endloop
  endfacet
  facet normal -0.661312 -0.750111 0
    outer loop
      vertex -7.01166 -8.47565 4
      vertex -7.53002 -8.01865 4
      vertex -7.01166 -8.47565 0
    endloop
  endfacet
  facet normal -0.612907 -0.790155 0
    outer loop
      vertex -7.01166 -8.47565 4
      vertex -7.01166 -8.47565 0
      vertex -6.46564 -8.89919 0
    endloop
  endfacet
  facet normal -0.612907 -0.790155 0
    outer loop
      vertex -6.46564 -8.89919 4
      vertex -7.01166 -8.47565 4
      vertex -6.46564 -8.89919 0
    endloop
  endfacet
  facet normal -0.562083 -0.827081 0
    outer loop
      vertex -6.46564 -8.89919 4
      vertex -6.46564 -8.89919 0
      vertex -5.8941 -9.28761 0
    endloop
  endfacet
  facet normal -0.562083 -0.827081 0
    outer loop
      vertex -5.8941 -9.28761 4
      vertex -6.46564 -8.89919 4
      vertex -5.8941 -9.28761 0
    endloop
  endfacet
  facet normal -0.509041 -0.860742 0
    outer loop
      vertex -5.8941 -9.28761 4
      vertex -5.8941 -9.28761 0
      vertex -5.29929 -9.63937 0
    endloop
  endfacet
  facet normal -0.509041 -0.860742 0
    outer loop
      vertex -5.29929 -9.63937 4
      vertex -5.8941 -9.28761 4
      vertex -5.29929 -9.63937 0
    endloop
  endfacet
  facet normal -0.453992 -0.891006 0
    outer loop
      vertex -5.29929 -9.63937 4
      vertex -5.29929 -9.63937 0
      vertex -4.68357 -9.9531 0
    endloop
  endfacet
  facet normal -0.453992 -0.891006 0
    outer loop
      vertex -4.68357 -9.9531 4
      vertex -5.29929 -9.63937 4
      vertex -4.68357 -9.9531 0
    endloop
  endfacet
  facet normal -0.397147 -0.917755 0
    outer loop
      vertex -4.68357 -9.9531 4
      vertex -4.68357 -9.9531 0
      vertex -4.04937 -10.2275 0
    endloop
  endfacet
  facet normal -0.397147 -0.917755 0
    outer loop
      vertex -4.04937 -10.2275 4
      vertex -4.68357 -9.9531 4
      vertex -4.04937 -10.2275 0
    endloop
  endfacet
  facet normal -0.338739 -0.94088 0
    outer loop
      vertex -4.04937 -10.2275 4
      vertex -4.04937 -10.2275 0
      vertex -3.39919 -10.4616 0
    endloop
  endfacet
  facet normal -0.338739 -0.94088 0
    outer loop
      vertex -3.39919 -10.4616 4
      vertex -4.04937 -10.2275 4
      vertex -3.39919 -10.4616 0
    endloop
  endfacet
  facet normal -0.278991 -0.960294 0
    outer loop
      vertex -3.39919 -10.4616 4
      vertex -3.39919 -10.4616 0
      vertex -2.73559 -10.6544 0
    endloop
  endfacet
  facet normal -0.278991 -0.960294 0
    outer loop
      vertex -2.73559 -10.6544 4
      vertex -3.39919 -10.4616 4
      vertex -2.73559 -10.6544 0
    endloop
  endfacet
  facet normal -0.218143 -0.975917 0
    outer loop
      vertex -2.73559 -10.6544 4
      vertex -2.73559 -10.6544 0
      vertex -2.06119 -10.8052 0
    endloop
  endfacet
  facet normal -0.218143 -0.975917 0
    outer loop
      vertex -2.06119 -10.8052 4
      vertex -2.73559 -10.6544 4
      vertex -2.06119 -10.8052 0
    endloop
  endfacet
  facet normal -0.156435 -0.987688 0
    outer loop
      vertex -2.06119 -10.8052 4
      vertex -2.06119 -10.8052 0
      vertex -1.37867 -10.9133 0
    endloop
  endfacet
  facet normal -0.156435 -0.987688 0
    outer loop
      vertex -1.37867 -10.9133 4
      vertex -2.06119 -10.8052 4
      vertex -1.37867 -10.9133 0
    endloop
  endfacet
  facet normal -0.0941079 -0.995562 0
    outer loop
      vertex -1.37867 -10.9133 4
      vertex -1.37867 -10.9133 0
      vertex -0.690696 -10.9783 0
    endloop
  endfacet
  facet normal -0.0941079 -0.995562 0
    outer loop
      vertex -0.690696 -10.9783 4
      vertex -1.37867 -10.9133 4
      vertex -0.690696 -10.9783 0
    endloop
  endfacet
  facet normal -0.0314108 -0.999507 0
    outer loop
      vertex -0.690696 -10.9783 4
      vertex -0.690696 -10.9783 0
      vertex 0 -11 0
    endloop
  endfacet
  facet normal -0.0314108 -0.999507 0
    outer loop
      vertex 0 -11 4
      vertex -0.690696 -10.9783 4
      vertex 0 -11 0
    endloop
  endfacet
  facet normal 0.0314108 -0.999507 0
    outer loop
      vertex 0 -11 4
      vertex 0 -11 0
      vertex 0.690696 -10.9783 0
    endloop
  endfacet
  facet normal 0.0314108 -0.999507 0
    outer loop
      vertex 0.690696 -10.9783 4
      vertex 0 -11 4
      vertex 0.690696 -10.9783 0
    endloop
  endfacet
  facet normal 0.0941079 -0.995562 0
    outer loop
      vertex 0.690696 -10.9783 4
      vertex 0.690696 -10.9783 0
      vertex 1.37867 -10.9133 0
    endloop
  endfacet
  facet normal 0.0941079 -0.995562 0
    outer loop
      vertex 1.37867 -10.9133 4
      vertex 0.690696 -10.9783 4
      vertex 1.37867 -10.9133 0
    endloop
  endfacet
  facet normal 0.156435 -0.987688 0
    outer loop
      vertex 1.37867 -10.9133 4
      vertex 1.37867 -10.9133 0
      vertex 2.06119 -10.8052 0
    endloop
  endfacet
  facet normal 0.156435 -0.987688 0
    outer loop
      vertex 2.06119 -10.8052 4
      vertex 1.37867 -10.9133 4
      vertex 2.06119 -10.8052 0
    endloop
  endfacet
  facet normal 0.218143 -0.975917 0
    outer loop
      vertex 2.06119 -10.8052 4
      vertex 2.06119 -10.8052 0
      vertex 2.73559 -10.6544 0
    endloop
  endfacet
  facet normal 0.218143 -0.975917 0
    outer loop
      vertex 2.73559 -10.6544 4
      vertex 2.06119 -10.8052 4
      vertex 2.73559 -10.6544 0
    endloop
  endfacet
  facet normal 0.278991 -0.960294 0
    outer loop
      vertex 2.73559 -10.6544 4
      vertex 2.73559 -10.6544 0
      vertex 3.39919 -10.4616 0
    endloop
  endfacet
  facet normal 0.278991 -0.960294 0
    outer loop
      vertex 3.39919 -10.4616 4
      vertex 2.73559 -10.6544 4
      vertex 3.39919 -10.4616 0
    endloop
  endfacet
  facet normal 0.338739 -0.94088 0
    outer loop
      vertex 3.39919 -10.4616 4
      vertex 3.39919 -10.4616 0
      vertex 4.04937 -10.2275 0
    endloop
  endfacet
  facet normal 0.338739 -0.94088 0
    outer loop
      vertex 4.04937 -10.2275 4
      vertex 3.39919 -10.4616 4
      vertex 4.04937 -10.2275 0
    endloop
  endfacet
  facet normal 0.397147 -0.917755 0
    outer loop
      vertex 4.04937 -10.2275 4
      vertex 4.04937 -10.2275 0
      vertex 4.68357 -9.9531 0
    endloop
  endfacet
  facet normal 0.397147 -0.917755 0
    outer loop
      vertex 4.68357 -9.9531 4
      vertex 4.04937 -10.2275 4
      vertex 4.68357 -9.9531 0
    endloop
  endfacet
  facet normal 0.453992 -0.891006 0
    outer loop
      vertex 4.68357 -9.9531 4
      vertex 4.68357 -9.9531 0
      vertex 5.29929 -9.63937 0
    endloop
  endfacet
  facet normal 0.453992 -0.891006 0
    outer loop
      vertex 5.29929 -9.63937 4
      vertex 4.68357 -9.9531 4
      vertex 5.29929 -9.63937 0
    endloop
  endfacet
  facet normal 0.509041 -0.860742 0
    outer loop
      vertex 5.29929 -9.63937 4
      vertex 5.29929 -9.63937 0
      vertex 5.8941 -9.28761 0
    endloop
  endfacet
  facet normal 0.509041 -0.860742 0
    outer loop
      vertex 5.8941 -9.28761 4
      vertex 5.29929 -9.63937 4
      vertex 5.8941 -9.28761 0
    endloop
  endfacet
  facet normal 0.562083 -0.827081 0
    outer loop
      vertex 5.8941 -9.28761 4
      vertex 5.8941 -9.28761 0
      vertex 6.46564 -8.89919 0
    endloop
  endfacet
  facet normal 0.562083 -0.827081 0
    outer loop
      vertex 6.46564 -8.89919 4
      vertex 5.8941 -9.28761 4
      vertex 6.46564 -8.89919 0
    endloop
  endfacet
  facet normal 0.612907 -0.790155 0
    outer loop
      vertex 6.46564 -8.89919 4
      vertex 6.46564 -8.89919 0
      vertex 7.01166 -8.47565 0
    endloop
  endfacet
  facet normal 0.612907 -0.790155 0
    outer loop
      vertex 7.01166 -8.47565 4
      vertex 6.46564 -8.89919 4
      vertex 7.01166 -8.47565 0
    endloop
  endfacet
  facet normal 0.661312 -0.750111 0
    outer loop
      vertex 7.01166 -8.47565 4
      vertex 7.01166 -8.47565 0
      vertex 7.53002 -8.01865 0
    endloop
  endfacet
  facet normal 0.661312 -0.750111 0
    outer loop
      vertex 7.53002 -8.01865 4
      vertex 7.01166 -8.47565 4
      vertex 7.53002 -8.01865 0
    endloop
  endfacet
  facet normal 0.707107 -0.707107 0
    outer loop
      vertex 7.53002 -8.01865 4
      vertex 7.53002 -8.01865 0
      vertex 8.01865 -7.53002 0
    endloop
  endfacet
  facet normal 0.707107 -0.707107 0
    outer loop
      vertex 8.01865 -7.53002 4
      vertex 7.53002 -8.01865 4
      vertex 8.01865 -7.53002 0
    endloop
  endfacet
  facet normal 0.750111 -0.661312 0
    outer loop
      vertex 8.01865 -7.53002 4
      vertex 8.01865 -7.53002 0
      vertex 8.47565 -7.01166 0
    endloop
  endfacet
  facet normal 0.750111 -0.661312 0
    outer loop
      vertex 8.47565 -7.01166 4
      vertex 8.01865 -7.53002 4
      vertex 8.47565 -7.01166 0
    endloop
  endfacet
  facet normal 0.790155 -0.612907 0
    outer loop
      vertex 8.47565 -7.01166 4
      vertex 8.47565 -7.01166 0
      vertex 8.89919 -6.46564 0
    endloop
  endfacet
  facet normal 0.790155 -0.612907 0
    outer loop
      vertex 8.89919 -6.46564 4
      vertex 8.47565 -7.01166 4
      vertex 8.89919 -6.46564 0
    endloop
  endfacet
  facet normal 0.827081 -0.562083 0
    outer loop
      vertex 8.89919 -6.46564 4
      vertex 8.89919 -6.46564 0
      vertex 9.28761 -5.8941 0
    endloop
  endfacet
  facet normal 0.827081 -0.562083 0
    outer loop
      vertex 9.28761 -5.8941 4
      vertex 8.89919 -6.46564 4
      vertex 9.28761 -5.8941 0
    endloop
  endfacet
  facet normal 0.860742 -0.509041 0
    outer loop
      vertex 9.28761 -5.8941 4
      vertex 9.28761 -5.8941 0
      vertex 9.63937 -5.29929 0
    endloop
  endfacet
  facet normal 0.860742 -0.509041 0
    outer loop
      vertex 9.63937 -5.29929 4
      vertex 9.28761 -5.8941 4
      vertex 9.63937 -5.29929 0
    endloop
  endfacet
  facet normal 0.891006 -0.453992 0
    outer loop
      vertex 9.63937 -5.29929 4
      vertex 9.63937 -5.29929 0
      vertex 9.9531 -4.68357 0
    endloop
  endfacet
  facet normal 0.891006 -0.453992 0
    outer loop
      vertex 9.9531 -4.68357 4
      vertex 9.63937 -5.29929 4
      vertex 9.9531 -4.68357 0
    endloop
  endfacet
  facet normal 0.917755 -0.397147 0
    outer loop
      vertex 9.9531 -4.68357 4
      vertex 9.9531 -4.68357 0
      vertex 10.2275 -4.04937 0
    endloop
  endfacet
  facet normal 0.917755 -0.397147 0
    outer loop
      vertex 10.2275 -4.04937 4
      vertex 9.9531 -4.68357 4
      vertex 10.2275 -4.04937 0
    endloop
  endfacet
  facet normal 0.94088 -0.338739 0
    outer loop
      vertex 10.2275 -4.04937 4
      vertex 10.2275 -4.04937 0
      vertex 10.4616 -3.39919 0
    endloop
  endfacet
  facet normal 0.94088 -0.338739 0
    outer loop
      vertex 10.4616 -3.39919 4
      vertex 10.2275 -4.04937 4
      vertex 10.4616 -3.39919 0
    endloop
  endfacet
  facet normal 0.960294 -0.278991 0
    outer loop
      vertex 10.4616 -3.39919 4
      vertex 10.4616 -3.39919 0
      vertex 10.6544 -2.73559 0
    endloop
  endfacet
  facet normal 0.960294 -0.278991 0
    outer loop
      vertex 10.6544 -2.73559 4
      vertex 10.4616 -3.39919 4
      vertex 10.6544 -2.73559 0
    endloop
  endfacet
  facet normal 0.975917 -0.218143 0
    outer loop
      vertex 10.6544 -2.73559 4
      vertex 10.6544 -2.73559 0
      vertex 10.8052 -2.06119 0
    endloop
  endfacet
  facet normal 0.975917 -0.218143 0
    outer loop
      vertex 10.8052 -2.06119 4
      vertex 10.6544 -2.73559 4
      vertex 10.8052 -2.06119 0
    endloop
  endfacet
  facet normal 0.987688 -0.156435 0
    outer loop
      vertex 10.8052 -2.06119 4
      vertex 10.8052 -2.06119 0
      vertex 10.9133 -1.37867 0
    endloop
  endfacet
  facet normal 0.987688 -0.156435 0
    outer loop
      vertex 10.894 -1.5 2.01
      vertex 10.8052 -2.06119 4
      vertex 10.9133 -1.37867 0
    endloop
  endfacet
  facet normal 0.987688 -0.156435 0
    outer loop
      vertex 10.9133 -1.37867 2.01
      vertex 10.894 -1.5 2.01
      vertex 10.9133 -1.37867 0
    endloop
  endfacet
  facet normal 0.987688 -0.156435 0
    outer loop
      vertex 10.894 -1.5 2.01
      vertex 10.894 -1.5 4
      vertex 10.8052 -2.06119 4
    endloop
  endfacet
  facet normal 0.995562 -0.0941079 0
    outer loop
      vertex 10.9133 -1.37867 2.01
      vertex 10.9133 -1.37867 0
      vertex 10.9783 -0.690696 0
    endloop
  endfacet
  facet normal 0.995562 -0.0941079 0
    outer loop
      vertex 10.9783 -0.690696 2.01
      vertex 10.9133 -1.37867 2.01
      vertex 10.9783 -0.690696 0
    endloop
  endfacet
  facet normal 0.999507 -0.0314108 0
    outer loop
      vertex 10.9783 -0.690696 2.01
      vertex 10.9783 -0.690696 0
      vertex 11 0 0
    endloop
  endfacet
  facet normal 0.999507 -0.0314108 0
    outer loop
      vertex 11 0 2.01
      vertex 10.9783 -0.690696 2.01
      vertex 11 0 0
    endloop
  endfacet
  facet normal 0.999507 0.0314108 0
    outer loop
      vertex 11 0 0
      vertex 10.9783 0.690696 0
      vertex 10.9783 0.690696 2.01
    endloop
  endfacet
  facet normal 0.999507 0.0314108 0
    outer loop
      vertex 11 0 2.01
      vertex 11 0 0
      vertex 10.9783 0.690696 2.01
    endloop
  endfacet
  facet normal 0.995562 0.0941079 0
    outer loop
      vertex 10.9783 0.690696 0
      vertex 10.9133 1.37867 0
      vertex 10.9133 1.37867 2.01
    endloop
  endfacet
  facet normal 0.995562 0.0941079 0
    outer loop
      vertex 10.9783 0.690696 2.01
      vertex 10.9783 0.690696 0
      vertex 10.9133 1.37867 2.01
    endloop
  endfacet
  facet normal 0.987688 0.156435 0
    outer loop
      vertex 10.9133 1.37867 0
      vertex 10.8052 2.06119 0
      vertex 10.8052 2.06119 4
    endloop
  endfacet
  facet normal 0.987688 0.156435 0
    outer loop
      vertex 10.894 1.5 2.01
      vertex 10.9133 1.37867 0
      vertex 10.8052 2.06119 4
    endloop
  endfacet
  facet normal 0.987688 0.156435 0
    outer loop
      vertex 10.894 1.5 4
      vertex 10.894 1.5 2.01
      vertex 10.8052 2.06119 4
    endloop
  endfacet
  facet normal 0.987688 0.156435 0
    outer loop
      vertex 10.894 1.5 2.01
      vertex 10.9133 1.37867 2.01
      vertex 10.9133 1.37867 0
    endloop
  endfacet
  facet normal 0.975917 0.218143 0
    outer loop
      vertex 10.8052 2.06119 0
      vertex 10.6544 2.73559 0
      vertex 10.6544 2.73559 4
    endloop
  endfacet
  facet normal 0.975917 0.218143 0
    outer loop
      vertex 10.8052 2.06119 4
      vertex 10.8052 2.06119 0
      vertex 10.6544 2.73559 4
    endloop
  endfacet
  facet normal 0.960294 0.278991 0
    outer loop
      vertex 10.6544 2.73559 0
      vertex 10.4616 3.39919 0
      vertex 10.4616 3.39919 4
    endloop
  endfacet
  facet normal 0.960294 0.278991 0
    outer loop
      vertex 10.6544 2.73559 4
      vertex 10.6544 2.73559 0
      vertex 10.4616 3.39919 4
    endloop
  endfacet
  facet normal 0.94088 0.338739 0
    outer loop
      vertex 10.4616 3.39919 0
      vertex 10.2275 4.04937 0
      vertex 10.2275 4.04937 4
    endloop
  endfacet
  facet normal 0.94088 0.338739 0
    outer loop
      vertex 10.4616 3.39919 4
      vertex 10.4616 3.39919 0
      vertex 10.2275 4.04937 4
    endloop
  endfacet
  facet normal 0.917755 0.397147 0
    outer loop
      vertex 10.2275 4.04937 0
      vertex 9.9531 4.68357 0
      vertex 9.9531 4.68357 4
    endloop
  endfacet
  facet normal 0.917755 0.397147 0
    outer loop
      vertex 10.2275 4.04937 4
      vertex 10.2275 4.04937 0
      vertex 9.9531 4.68357 4
    endloop
  endfacet
  facet normal 0.891006 0.453992 0
    outer loop
      vertex 9.9531 4.68357 0
      vertex 9.63937 5.29929 0
      vertex 9.63937 5.29929 4
    endloop
  endfacet
  facet normal 0.891006 0.453992 0
    outer loop
      vertex 9.9531 4.68357 4
      vertex 9.9531 4.68357 0
      vertex 9.63937 5.29929 4
    endloop
  endfacet
  facet normal 0.860742 0.509041 0
    outer loop
      vertex 9.63937 5.29929 0
      vertex 9.28761 5.8941 0
      vertex 9.28761 5.8941 4
    endloop
  endfacet
  facet normal 0.860742 0.509041 0
    outer loop
      vertex 9.63937 5.29929 4
      vertex 9.63937 5.29929 0
      vertex 9.28761 5.8941 4
    endloop
  endfacet
  facet normal 0.827081 0.562083 0
    outer loop
      vertex 9.28761 5.8941 0
      vertex 8.89919 6.46564 0
      vertex 8.89919 6.46564 4
    endloop
  endfacet
  facet normal 0.827081 0.562083 0
    outer loop
      vertex 9.28761 5.8941 4
      vertex 9.28761 5.8941 0
      vertex 8.89919 6.46564 4
    endloop
  endfacet
  facet normal 0.790155 0.612907 0
    outer loop
      vertex 8.89919 6.46564 0
      vertex 8.47565 7.01166 0
      vertex 8.47565 7.01166 4
    endloop
  endfacet
  facet normal 0.790155 0.612907 0
    outer loop
      vertex 8.89919 6.46564 4
      vertex 8.89919 6.46564 0
      vertex 8.47565 7.01166 4
    endloop
  endfacet
  facet normal 0.750111 0.661312 0
    outer loop
      vertex 8.47565 7.01166 0
      vertex 8.01865 7.53002 0
      vertex 8.01865 7.53002 4
    endloop
  endfacet
  facet normal 0.750111 0.661312 0
    outer loop
      vertex 8.47565 7.01166 4
      vertex 8.47565 7.01166 0
      vertex 8.01865 7.53002 4
    endloop
  endfacet
  facet normal 0.707107 0.707107 0
    outer loop
      vertex 7.53002 8.01865 0
      vertex 7.53002 8.01865 4
      vertex 8.01865 7.53002 0
    endloop
  endfacet
  facet normal 0.707107 0.707107 0
    outer loop
      vertex 8.01865 7.53002 0
      vertex 7.53002 8.01865 4
      vertex 8.01865 7.53002 4
    endloop
  endfacet
  facet normal 0.661312 0.750111 0
    outer loop
      vertex 7.01166 8.47565 0
      vertex 7.01166 8.47565 4
      vertex 7.53002 8.01865 0
    endloop
  endfacet
  facet normal 0.661312 0.750111 0
    outer loop
      vertex 7.53002 8.01865 0
      vertex 7.01166 8.47565 4
      vertex 7.53002 8.01865 4
    endloop
  endfacet
  facet normal 0.612907 0.790155 0
    outer loop
      vertex 6.46564 8.89919 0
      vertex 6.46564 8.89919 4
      vertex 7.01166 8.47565 0
    endloop
  endfacet
  facet normal 0.612907 0.790155 0
    outer loop
      vertex 7.01166 8.47565 0
      vertex 6.46564 8.89919 4
      vertex 7.01166 8.47565 4
    endloop
  endfacet
  facet normal 0.562083 0.827081 0
    outer loop
      vertex 5.8941 9.28761 0
      vertex 5.8941 9.28761 4
      vertex 6.46564 8.89919 0
    endloop
  endfacet
  facet normal 0.562083 0.827081 0
    outer loop
      vertex 6.46564 8.89919 0
      vertex 5.8941 9.28761 4
      vertex 6.46564 8.89919 4
    endloop
  endfacet
  facet normal 0.509041 0.860742 0
    outer loop
      vertex 5.29929 9.63937 0
      vertex 5.29929 9.63937 4
      vertex 5.8941 9.28761 0
    endloop
  endfacet
  facet normal 0.509041 0.860742 0
    outer loop
      vertex 5.8941 9.28761 0
      vertex 5.29929 9.63937 4
      vertex 5.8941 9.28761 4
    endloop
  endfacet
  facet normal 0.453992 0.891006 0
    outer loop
      vertex 4.68357 9.9531 0
      vertex 4.68357 9.9531 4
      vertex 5.29929 9.63937 0
    endloop
  endfacet
  facet normal 0.453992 0.891006 0
    outer loop
      vertex 5.29929 9.63937 0
      vertex 4.68357 9.9531 4
      vertex 5.29929 9.63937 4
    endloop
  endfacet
  facet normal 0.397147 0.917755 0
    outer loop
      vertex 4.04937 10.2275 0
      vertex 4.04937 10.2275 4
      vertex 4.68357 9.9531 0
    endloop
  endfacet
  facet normal 0.397147 0.917755 0
    outer loop
      vertex 4.68357 9.9531 0
      vertex 4.04937 10.2275 4
      vertex 4.68357 9.9531 4
    endloop
  endfacet
  facet normal 0.338739 0.94088 0
    outer loop
      vertex 3.39919 10.4616 0
      vertex 3.39919 10.4616 4
      vertex 4.04937 10.2275 0
    endloop
  endfacet
  facet normal 0.338739 0.94088 0
    outer loop
      vertex 4.04937 10.2275 0
      vertex 3.39919 10.4616 4
      vertex 4.04937 10.2275 4
    endloop
  endfacet
  facet normal 0.278991 0.960294 0
    outer loop
      vertex 2.73559 10.6544 0
      vertex 2.73559 10.6544 4
      vertex 3.39919 10.4616 0
    endloop
  endfacet
  facet normal 0.278991 0.960294 0
    outer loop
      vertex 3.39919 10.4616 0
      vertex 2.73559 10.6544 4
      vertex 3.39919 10.4616 4
    endloop
  endfacet
  facet normal 0.218143 0.975917 0
    outer loop
      vertex 2.06119 10.8052 0
      vertex 2.06119 10.8052 4
      vertex 2.73559 10.6544 0
    endloop
  endfacet
  facet normal 0.218143 0.975917 0
    outer loop
      vertex 2.73559 10.6544 0
      vertex 2.06119 10.8052 4
      vertex 2.73559 10.6544 4
    endloop
  endfacet
  facet normal 0.156435 0.987688 0
    outer loop
      vertex 1.37867 10.9133 0
      vertex 1.37867 10.9133 4
      vertex 2.06119 10.8052 0
    endloop
  endfacet
  facet normal 0.156435 0.987688 0
    outer loop
      vertex 2.06119 10.8052 0
      vertex 1.37867 10.9133 4
      vertex 2.06119 10.8052 4
    endloop
  endfacet
  facet normal 0.0941079 0.995562 0
    outer loop
      vertex 0.690696 10.9783 0
      vertex 0.690696 10.9783 4
      vertex 1.37867 10.9133 0
    endloop
  endfacet
  facet normal 0.0941079 0.995562 0
    outer loop
      vertex 1.37867 10.9133 0
      vertex 0.690696 10.9783 4
      vertex 1.37867 10.9133 4
    endloop
  endfacet
  facet normal 0.0314108 0.999507 0
    outer loop
      vertex 0 11 0
      vertex 0 11 4
      vertex 0.690696 10.9783 0
    endloop
  endfacet
  facet normal 0.0314108 0.999507 0
    outer loop
      vertex 0.690696 10.9783 0
      vertex 0 11 4
      vertex 0.690696 10.9783 4
    endloop
  endfacet
  facet normal -0.0314108 0.999507 0
    outer loop
      vertex -0.690696 10.9783 0
      vertex -0.690696 10.9783 4
      vertex 0 11 0
    endloop
  endfacet
  facet normal -0.0314108 0.999507 0
    outer loop
      vertex 0 11 0
      vertex -0.690696 10.9783 4
      vertex 0 11 4
    endloop
  endfacet
  facet normal -0.0941079 0.995562 0
    outer loop
      vertex -1.37867 10.9133 0
      vertex -1.37867 10.9133 4
      vertex -0.690696 10.9783 0
    endloop
  endfacet
  facet normal -0.0941079 0.995562 0
    outer loop
      vertex -0.690696 10.9783 0
      vertex -1.37867 10.9133 4
      vertex -0.690696 10.9783 4
    endloop
  endfacet
  facet normal -0.156435 0.987688 0
    outer loop
      vertex -2.06119 10.8052 0
      vertex -2.06119 10.8052 4
      vertex -1.37867 10.9133 0
    endloop
  endfacet
  facet normal -0.156435 0.987688 0
    outer loop
      vertex -1.37867 10.9133 0
      vertex -2.06119 10.8052 4
      vertex -1.37867 10.9133 4
    endloop
  endfacet
  facet normal -0.218143 0.975917 0
    outer loop
      vertex -2.73559 10.6544 0
      vertex -2.73559 10.6544 4
      vertex -2.06119 10.8052 0
    endloop
  endfacet
  facet normal -0.218143 0.975917 0
    outer loop
      vertex -2.06119 10.8052 0
      vertex -2.73559 10.6544 4
      vertex -2.06119 10.8052 4
    endloop
  endfacet
  facet normal -0.278991 0.960294 0
    outer loop
      vertex -3.39919 10.4616 0
      vertex -3.39919 10.4616 4
      vertex -2.73559 10.6544 0
    endloop
  endfacet
  facet normal -0.278991 0.960294 0
    outer loop
      vertex -2.73559 10.6544 0
      vertex -3.39919 10.4616 4
      vertex -2.73559 10.6544 4
    endloop
  endfacet
  facet normal -0.338739 0.94088 0
    outer loop
      vertex -4.04937 10.2275 0
      vertex -4.04937 10.2275 4
      vertex -3.39919 10.4616 0
    endloop
  endfacet
  facet normal -0.338739 0.94088 0
    outer loop
      vertex -3.39919 10.4616 0
      vertex -4.04937 10.2275 4
      vertex -3.39919 10.4616 4
    endloop
  endfacet
  facet normal -0.397147 0.917755 0
    outer loop
      vertex -4.68357 9.9531 0
      vertex -4.68357 9.9531 4
      vertex -4.04937 10.2275 0
    endloop
  endfacet
  facet normal -0.397147 0.917755 0
    outer loop
      vertex -4.04937 10.2275 0
      vertex -4.68357 9.9531 4
      vertex -4.04937 10.2275 4
    endloop
  endfacet
  facet normal -0.453992 0.891006 0
    outer loop
      vertex -5.29929 9.63937 0
      vertex -5.29929 9.63937 4
      vertex -4.68357 9.9531 0
    endloop
  endfacet
  facet normal -0.453992 0.891006 0
    outer loop
      vertex -4.68357 9.9531 0
      vertex -5.29929 9.63937 4
      vertex -4.68357 9.9531 4
    endloop
  endfacet
  facet normal -0.509041 0.860742 0
    outer loop
      vertex -5.8941 9.28761 0
      vertex -5.8941 9.28761 4
      vertex -5.29929 9.63937 0
    endloop
  endfacet
  facet normal -0.509041 0.860742 0
    outer loop
      vertex -5.29929 9.63937 0
      vertex -5.8941 9.28761 4
      vertex -5.29929 9.63937 4
    endloop
  endfacet
  facet normal -0.562083 0.827081 0
    outer loop
      vertex -6.46564 8.89919 0
      vertex -6.46564 8.89919 4
      vertex -5.8941 9.28761 0
    endloop
  endfacet
  facet normal -0.562083 0.827081 0
    outer loop
      vertex -5.8941 9.28761 0
      vertex -6.46564 8.89919 4
      vertex -5.8941 9.28761 4
    endloop
  endfacet
  facet normal -0.612907 0.790155 0
    outer loop
      vertex -7.01166 8.47565 0
      vertex -7.01166 8.47565 4
      vertex -6.46564 8.89919 0
    endloop
  endfacet
  facet normal -0.612907 0.790155 0
    outer loop
      vertex -6.46564 8.89919 0
      vertex -7.01166 8.47565 4
      vertex -6.46564 8.89919 4
    endloop
  endfacet
  facet normal -0.661312 0.750111 0
    outer loop
      vertex -7.53002 8.01865 0
      vertex -7.53002 8.01865 4
      vertex -7.01166 8.47565 0
    endloop
  endfacet
  facet normal -0.661312 0.750111 0
    outer loop
      vertex -7.01166 8.47565 0
      vertex -7.53002 8.01865 4
      vertex -7.01166 8.47565 4
    endloop
  endfacet
  facet normal -0.707107 0.707107 0
    outer loop
      vertex -8.01865 7.53002 0
      vertex -8.01865 7.53002 4
      vertex -7.53002 8.01865 0
    endloop
  endfacet
  facet normal -0.707107 0.707107 0
    outer loop
      vertex -7.53002 8.01865 0
      vertex -8.01865 7.53002 4
      vertex -7.53002 8.01865 4
    endloop
  endfacet
  facet normal -0.750111 0.661312 0
    outer loop
      vertex -8.47565 7.01166 0
      vertex -8.47565 7.01166 4
      vertex -8.01865 7.53002 0
    endloop
  endfacet
  facet normal -0.750111 0.661312 0
    outer loop
      vertex -8.01865 7.53002 0
      vertex -8.47565 7.01166 4
      vertex -8.01865 7.53002 4
    endloop
  endfacet
  facet normal -0.790155 0.612907 0
    outer loop
      vertex -8.89919 6.46564 0
      vertex -8.89919 6.46564 4
      vertex -8.47565 7.01166 0
    endloop
  endfacet
  facet normal -0.790155 0.612907 0
    outer loop
      vertex -8.47565 7.01166 0
      vertex -8.89919 6.46564 4
      vertex -8.47565 7.01166 4
    endloop
  endfacet
  facet normal -0.827081 0.562083 0
    outer loop
      vertex -9.28761 5.8941 0
      vertex -9.28761 5.8941 4
      vertex -8.89919 6.46564 0
    endloop
  endfacet
  facet normal -0.827081 0.562083 0
    outer loop
      vertex -8.89919 6.46564 0
      vertex -9.28761 5.8941 4
      vertex -8.89919 6.46564 4
    endloop
  endfacet
  facet normal -0.860742 0.509041 0
    outer loop
      vertex -9.63937 5.29929 0
      vertex -9.63937 5.29929 4
      vertex -9.28761 5.8941 0
    endloop
  endfacet
  facet normal -0.860742 0.509041 0
    outer loop
      vertex -9.28761 5.8941 0
      vertex -9.63937 5.29929 4
      vertex -9.28761 5.8941 4
    endloop
  endfacet
  facet normal -0.891006 0.453992 0
    outer loop
      vertex -9.9531 4.68357 0
      vertex -9.9531 4.68357 4
      vertex -9.63937 5.29929 0
    endloop
  endfacet
  facet normal -0.891006 0.453992 0
    outer loop
      vertex -9.63937 5.29929 0
      vertex -9.9531 4.68357 4
      vertex -9.63937 5.29929 4
    endloop
  endfacet
  facet normal -0.917755 0.397147 0
    outer loop
      vertex -10.2275 4.04937 0
      vertex -10.2275 4.04937 4
      vertex -9.9531 4.68357 0
    endloop
  endfacet
  facet normal -0.917755 0.397147 0
    outer loop
      vertex -9.9531 4.68357 0
      vertex -10.2275 4.04937 4
      vertex -9.9531 4.68357 4
    endloop
  endfacet
  facet normal -0.94088 0.338739 0
    outer loop
      vertex -10.4616 3.39919 0
      vertex -10.4616 3.39919 4
      vertex -10.2275 4.04937 0
    endloop
  endfacet
  facet normal -0.94088 0.338739 0
    outer loop
      vertex -10.2275 4.04937 0
      vertex -10.4616 3.39919 4
      vertex -10.2275 4.04937 4
    endloop
  endfacet
  facet normal -0.960294 0.278991 0
    outer loop
      vertex -10.6544 2.73559 0
      vertex -10.6544 2.73559 4
      vertex -10.4616 3.39919 0
    endloop
  endfacet
  facet normal -0.960294 0.278991 0
    outer loop
      vertex -10.4616 3.39919 0
      vertex -10.6544 2.73559 4
      vertex -10.4616 3.39919 4
    endloop
  endfacet
  facet normal -0.975917 0.218143 0
    outer loop
      vertex -10.8052 2.06119 0
      vertex -10.8052 2.06119 4
      vertex -10.6544 2.73559 0
    endloop
  endfacet
  facet normal -0.975917 0.218143 0
    outer loop
      vertex -10.6544 2.73559 0
      vertex -10.8052 2.06119 4
      vertex -10.6544 2.73559 4
    endloop
  endfacet
  facet normal -0.987688 0.156435 0
    outer loop
      vertex -10.9133 1.37867 0
      vertex -10.9133 1.37867 4
      vertex -10.8052 2.06119 0
    endloop
  endfacet
  facet normal -0.987688 0.156435 0
    outer loop
      vertex -10.8052 2.06119 0
      vertex -10.9133 1.37867 4
      vertex -10.8052 2.06119 4
    endloop
  endfacet
  facet normal -0.995562 0.0941079 0
    outer loop
      vertex -10.9783 0.690696 0
      vertex -10.9783 0.690696 4
      vertex -10.9133 1.37867 0
    endloop
  endfacet
  facet normal -0.995562 0.0941079 0
    outer loop
      vertex -10.9133 1.37867 0
      vertex -10.9783 0.690696 4
      vertex -10.9133 1.37867 4
    endloop
  endfacet
  facet normal 0 0 1
    outer loop
      vertex -10.9783 0.690696 4
      vertex -11 0 4
      vertex -10.9783 -0.690696 4
    endloop
  endfacet
  facet normal 0 0 1
    outer loop
      vertex -10.8052 -2.06119 4
      vertex -10.9783 0.690696 4
      vertex -10.9133 -1.37867 4
    endloop
  endfacet
  facet normal 0 0 1
    outer loop
      vertex -10.9133 -1.37867 4
      vertex -10.9783 0.690696 4
      vertex -10.9783 -0.690696 4
    endloop
  endfacet
  facet normal 0 0 1
    outer loop
      vertex -10.6544 -2.73559 4
      vertex -10.9783 0.690696 4
      vertex -10.8052 -2.06119 4
    endloop
  endfacet
  facet normal 0 0 1
    outer loop
      vertex -10.4616 -3.39919 4
      vertex -10.9783 0.690696 4
      vertex -10.6544 -2.73559 4
    endloop
  endfacet
  facet normal 0 0 1
    outer loop
      vertex -10.2275 -4.04937 4
      vertex -10.9783 0.690696 4
      vertex -10.4616 -3.39919 4
    endloop
  endfacet
  facet normal 0 0 1
    outer loop
      vertex -9.9531 -4.68357 4
      vertex -10.9783 0.690696 4
      vertex -10.2275 -4.04937 4
    endloop
  endfacet
  facet normal 0 0 1
    outer loop
      vertex -9.63937 -5.29929 4
      vertex -10.9783 0.690696 4
      vertex -9.9531 -4.68357 4
    endloop
  endfacet
  facet normal 0 0 1
    outer loop
      vertex -9.28761 -5.8941 4
      vertex -10.9783 0.690696 4
      vertex -9.63937 -5.29929 4
    endloop
  endfacet
  facet normal 0 0 1
    outer loop
      vertex -8.89919 -6.46564 4
      vertex -10.9783 0.690696 4
      vertex -9.28761 -5.8941 4
    endloop
  endfacet
  facet normal 0 0 1
    outer loop
      vertex -8.47565 -7.01166 4
      vertex -10.9783 0.690696 4
      vertex -8.89919 -6.46564 4
    endloop
  endfacet
  facet normal 0 0 1
    outer loop
      vertex -8.01865 -7.53002 4
      vertex -10.9783 0.690696 4
      vertex -8.47565 -7.01166 4
    endloop
  endfacet
  facet normal 0 0 1
    outer loop
      vertex -7.53002 -8.01865 4
      vertex -10.9783 0.690696 4
      vertex -8.01865 -7.53002 4
    endloop
  endfacet
  facet normal 0 0 1
    outer loop
      vertex -7.01166 -8.47565 4
      vertex -10.9783 0.690696 4
      vertex -7.53002 -8.01865 4
    endloop
  endfacet
  facet normal 0 0 1
    outer loop
      vertex -6.46564 -8.89919 4
      vertex -10.9783 0.690696 4
      vertex -7.01166 -8.47565 4
    endloop
  endfacet
  facet normal 0 0 1
    outer loop
      vertex -5.8941 -9.28761 4
      vertex -10.9783 0.690696 4
      vertex -6.46564 -8.89919 4
    endloop
  endfacet
  facet normal 0 0 1
    outer loop
      vertex -5.29929 -9.63937 4
      vertex -10.9783 0.690696 4
      vertex -5.8941 -9.28761 4
    endloop
  endfacet
  facet normal 0 0 1
    outer loop
      vertex -4.68357 -9.9531 4
      vertex -10.9783 0.690696 4
      vertex -5.29929 -9.63937 4
    endloop
  endfacet
  facet normal 0 0 1
    outer loop
      vertex -4.04937 -10.2275 4
      vertex -10.9783 0.690696 4
      vertex -4.68357 -9.9531 4
    endloop
  endfacet
  facet normal 0 0 1
    outer loop
      vertex -3.39919 -10.4616 4
      vertex -10.9783 0.690696 4
      vertex -4.04937 -10.2275 4
    endloop
  endfacet
  facet normal 0 0 1
    outer loop
      vertex -2.73559 -10.6544 4
      vertex -10.9783 0.690696 4
      vertex -3.39919 -10.4616 4
    endloop
  endfacet
  facet normal 0 0 1
    outer loop
      vertex -2.06119 -10.8052 4
      vertex -10.9783 0.690696 4
      vertex -2.73559 -10.6544 4
    endloop
  endfacet
  facet normal 0 0 1
    outer loop
      vertex -1.37867 -10.9133 4
      vertex -10.9783 0.690696 4
      vertex -2.06119 -10.8052 4
    endloop
  endfacet
  facet normal 0 0 1
    outer loop
      vertex -0.690696 -10.9783 4
      vertex -10.9783 0.690696 4
      vertex -1.37867 -10.9133 4
    endloop
  endfacet
  facet normal 0 0 1
    outer loop
      vertex 0 -11 4
      vertex -10.9783 0.690696 4
      vertex -0.690696 -10.9783 4
    endloop
  endfacet
  facet normal 0 0 1
    outer loop
      vertex 0.690696 -10.9783 4
      vertex -10.9783 0.690696 4
      vertex 0 -11 4
    endloop
  endfacet
  facet normal 0 0 1
    outer loop
      vertex 1.37867 -10.9133 4
      vertex -10.9783 0.690696 4
      vertex 0.690696 -10.9783 4
    endloop
  endfacet
  facet normal 0 0 1
    outer loop
      vertex 2.06119 -10.8052 4
      vertex -10.9783 0.690696 4
      vertex 1.37867 -10.9133 4
    endloop
  endfacet
  facet normal 0 0 1
    outer loop
      vertex 2.73559 -10.6544 4
      vertex -10.9783 0.690696 4
      vertex 2.06119 -10.8052 4
    endloop
  endfacet
  facet normal 0 0 1
    outer loop
      vertex 3.39919 -10.4616 4
      vertex -10.9783 0.690696 4
      vertex 2.73559 -10.6544 4
    endloop
  endfacet
  facet normal 0 0 1
    outer loop
      vertex 4.04937 -10.2275 4
      vertex -10.9783 0.690696 4
      vertex 3.39919 -10.4616 4
    endloop
  endfacet
  facet normal 0 0 1
    outer loop
      vertex 4.68357 -9.9531 4
      vertex -10.9783 0.690696 4
      vertex 4.04937 -10.2275 4
    endloop
  endfacet
  facet normal 0 0 1
    outer loop
      vertex 5.29929 -9.63937 4
      vertex -10.9783 0.690696 4
      vertex 4.68357 -9.9531 4
    endloop
  endfacet
  facet normal 0 0 1
    outer loop
      vertex 5.8941 -9.28761 4
      vertex -10.9783 0.690696 4
      vertex 5.29929 -9.63937 4
    endloop
  endfacet
  facet normal 0 0 1
    outer loop
      vertex 6.46564 -8.89919 4
      vertex -10.9783 0.690696 4
      vertex 5.8941 -9.28761 4
    endloop
  endfacet
  facet normal 0 0 1
    outer loop
      vertex 7.01166 -8.47565 4
      vertex -10.9783 0.690696 4
      vertex 6.46564 -8.89919 4
    endloop
  endfacet
  facet normal 0 0 1
    outer loop
      vertex -6.6 -1.5 4
      vertex -10.9783 0.690696 4
      vertex 7.01166 -8.47565 4
    endloop
  endfacet
  facet normal 0 0 1
    outer loop
      vertex -6.6 -1.5 4
      vertex -6.6 1.5 4
      vertex -10.9783 0.690696 4
    endloop
  endfacet
  facet normal 0 0 1
    outer loop
      vertex 7.53002 -8.01865 4
      vertex -6.6 -1.5 4
      vertex 7.01166 -8.47565 4
    endloop
  endfacet
  facet normal 0 0 1
    outer loop
      vertex 9.9531 4.68357 4
      vertex -10.9783 0.690696 4
      vertex -6.6 1.5 4
    endloop
  endfacet
  facet normal 0 0 1
    outer loop
      vertex 10.8052 2.06119 4
      vertex -6.6 1.5 4
      vertex 10.894 1.5 4
    endloop
  endfacet
  facet normal 0 0 1
    outer loop
      vertex 10.6544 2.73559 4
      vertex -6.6 1.5 4
      vertex 10.8052 2.06119 4
    endloop
  endfacet
  facet normal 0 0 1
    outer loop
      vertex 10.4616 3.39919 4
      vertex -6.6 1.5 4
      vertex 10.6544 2.73559 4
    endloop
  endfacet
  facet normal 0 0 1
    outer loop
      vertex 10.2275 4.04937 4
      vertex -6.6 1.5 4
      vertex 10.4616 3.39919 4
    endloop
  endfacet
  facet normal 0 0 1
    outer loop
      vertex 9.9531 4.68357 4
      vertex -6.6 1.5 4
      vertex 10.2275 4.04937 4
    endloop
  endfacet
  facet normal 0 0 1
    outer loop
      vertex 9.63937 5.29929 4
      vertex -10.9783 0.690696 4
      vertex 9.9531 4.68357 4
    endloop
  endfacet
  facet normal 0 0 1
    outer loop
      vertex 9.28761 5.8941 4
      vertex -10.9783 0.690696 4
      vertex 9.63937 5.29929 4
    endloop
  endfacet
  facet normal 0 0 1
    outer loop
      vertex 8.89919 6.46564 4
      vertex -10.9783 0.690696 4
      vertex 9.28761 5.8941 4
    endloop
  endfacet
  facet normal 0 0 1
    outer loop
      vertex 8.47565 7.01166 4
      vertex -10.9783 0.690696 4
      vertex 8.89919 6.46564 4
    endloop
  endfacet
  facet normal 0 0 1
    outer loop
      vertex 8.01865 7.53002 4
      vertex -10.9783 0.690696 4
      vertex 8.47565 7.01166 4
    endloop
  endfacet
  facet normal 0 0 1
    outer loop
      vertex 7.53002 8.01865 4
      vertex -10.9783 0.690696 4
      vertex 8.01865 7.53002 4
    endloop
  endfacet
  facet normal 0 0 1
    outer loop
      vertex 7.01166 8.47565 4
      vertex -10.9783 0.690696 4
      vertex 7.53002 8.01865 4
    endloop
  endfacet
  facet normal 0 0 1
    outer loop
      vertex 6.46564 8.89919 4
      vertex -10.9783 0.690696 4
      vertex 7.01166 8.47565 4
    endloop
  endfacet
  facet normal 0 0 1
    outer loop
      vertex 5.8941 9.28761 4
      vertex -10.9783 0.690696 4
      vertex 6.46564 8.89919 4
    endloop
  endfacet
  facet normal 0 0 1
    outer loop
      vertex 5.29929 9.63937 4
      vertex -10.9783 0.690696 4
      vertex 5.8941 9.28761 4
    endloop
  endfacet
  facet normal 0 0 1
    outer loop
      vertex 4.68357 9.9531 4
      vertex -10.9783 0.690696 4
      vertex 5.29929 9.63937 4
    endloop
  endfacet
  facet normal 0 0 1
    outer loop
      vertex 4.04937 10.2275 4
      vertex -10.9783 0.690696 4
      vertex 4.68357 9.9531 4
    endloop
  endfacet
  facet normal 0 0 1
    outer loop
      vertex 3.39919 10.4616 4
      vertex -10.9783 0.690696 4
      vertex 4.04937 10.2275 4
    endloop
  endfacet
  facet normal 0 0 1
    outer loop
      vertex 2.73559 10.6544 4
      vertex -10.9783 0.690696 4
      vertex 3.39919 10.4616 4
    endloop
  endfacet
  facet normal 0 0 1
    outer loop
      vertex 2.06119 10.8052 4
      vertex -10.9783 0.690696 4
      vertex 2.73559 10.6544 4
    endloop
  endfacet
  facet normal 0 0 1
    outer loop
      vertex 1.37867 10.9133 4
      vertex -10.9783 0.690696 4
      vertex 2.06119 10.8052 4
    endloop
  endfacet
  facet normal 0 0 1
    outer loop
      vertex 0.690696 10.9783 4
      vertex -10.9783 0.690696 4
      vertex 1.37867 10.9133 4
    endloop
  endfacet
  facet normal 0 0 1
    outer loop
      vertex 0 11 4
      vertex -10.9783 0.690696 4
      vertex 0.690696 10.9783 4
    endloop
  endfacet
  facet normal 0 0 1
    outer loop
      vertex -0.690696 10.9783 4
      vertex -10.9783 0.690696 4
      vertex 0 11 4
    endloop
  endfacet
  facet normal 0 0 1
    outer loop
      vertex -1.37867 10.9133 4
      vertex -10.9783 0.690696 4
      vertex -0.690696 10.9783 4
    endloop
  endfacet
  facet normal 0 0 1
    outer loop
      vertex -2.06119 10.8052 4
      vertex -10.9783 0.690696 4
      vertex -1.37867 10.9133 4
    endloop
  endfacet
  facet normal 0 0 1
    outer loop
      vertex -2.73559 10.6544 4
      vertex -10.9783 0.690696 4
      vertex -2.06119 10.8052 4
    endloop
  endfacet
  facet normal 0 0 1
    outer loop
      vertex -3.39919 10.4616 4
      vertex -10.9783 0.690696 4
      vertex -2.73559 10.6544 4
    endloop
  endfacet
  facet normal 0 0 1
    outer loop
      vertex -4.04937 10.2275 4
      vertex -10.9783 0.690696 4
      vertex -3.39919 10.4616 4
    endloop
  endfacet
  facet normal 0 0 1
    outer loop
      vertex -4.68357 9.9531 4
      vertex -10.9783 0.690696 4
      vertex -4.04937 10.2275 4
    endloop
  endfacet
  facet normal 0 0 1
    outer loop
      vertex -5.29929 9.63937 4
      vertex -10.9783 0.690696 4
      vertex -4.68357 9.9531 4
    endloop
  endfacet
  facet normal 0 0 1
    outer loop
      vertex -5.8941 9.28761 4
      vertex -10.9783 0.690696 4
      vertex -5.29929 9.63937 4
    endloop
  endfacet
  facet normal 0 0 1
    outer loop
      vertex -6.46564 8.89919 4
      vertex -10.9783 0.690696 4
      vertex -5.8941 9.28761 4
    endloop
  endfacet
  facet normal 0 0 1
    outer loop
      vertex -7.01166 8.47565 4
      vertex -10.9783 0.690696 4
      vertex -6.46564 8.89919 4
    endloop
  endfacet
  facet normal 0 0 1
    outer loop
      vertex -7.53002 8.01865 4
      vertex -10.9783 0.690696 4
      vertex -7.01166 8.47565 4
    endloop
  endfacet
  facet normal 0 0 1
    outer loop
      vertex -8.01865 7.53002 4
      vertex -10.9783 0.690696 4
      vertex -7.53002 8.01865 4
    endloop
  endfacet
  facet normal 0 0 1
    outer loop
      vertex -8.47565 7.01166 4
      vertex -10.9783 0.690696 4
      vertex -8.01865 7.53002 4
    endloop
  endfacet
  facet normal 0 0 1
    outer loop
      vertex -8.89919 6.46564 4
      vertex -10.9783 0.690696 4
      vertex -8.47565 7.01166 4
    endloop
  endfacet
  facet normal 0 0 1
    outer loop
      vertex -9.28761 5.8941 4
      vertex -10.9783 0.690696 4
      vertex -8.89919 6.46564 4
    endloop
  endfacet
  facet normal 0 0 1
    outer loop
      vertex -9.63937 5.29929 4
      vertex -10.9783 0.690696 4
      vertex -9.28761 5.8941 4
    endloop
  endfacet
  facet normal 0 0 1
    outer loop
      vertex -9.9531 4.68357 4
      vertex -10.9783 0.690696 4
      vertex -9.63937 5.29929 4
    endloop
  endfacet
  facet normal 0 0 1
    outer loop
      vertex -10.2275 4.04937 4
      vertex -10.9783 0.690696 4
      vertex -9.9531 4.68357 4
    endloop
  endfacet
  facet normal 0 0 1
    outer loop
      vertex -10.4616 3.39919 4
      vertex -10.9783 0.690696 4
      vertex -10.2275 4.04937 4
    endloop
  endfacet
  facet normal 0 0 1
    outer loop
      vertex -10.6544 2.73559 4
      vertex -10.9783 0.690696 4
      vertex -10.4616 3.39919 4
    endloop
  endfacet
  facet normal 0 0 1
    outer loop
      vertex -10.8052 2.06119 4
      vertex -10.9783 0.690696 4
      vertex -10.6544 2.73559 4
    endloop
  endfacet
  facet normal 0 0 1
    outer loop
      vertex -10.9133 1.37867 4
      vertex -10.9783 0.690696 4
      vertex -10.8052 2.06119 4
    endloop
  endfacet
  facet normal 0 0 1
    outer loop
      vertex 10.894 -1.5 4
      vertex 10.6544 -2.73559 4
      vertex 10.8052 -2.06119 4
    endloop
  endfacet
  facet normal 0 0 1
    outer loop
      vertex 10.894 -1.5 4
      vertex 10.4616 -3.39919 4
      vertex 10.6544 -2.73559 4
    endloop
  endfacet
  facet normal 0 0 1
    outer loop
      vertex 10.894 -1.5 4
      vertex 10.2275 -4.04937 4
      vertex 10.4616 -3.39919 4
    endloop
  endfacet
  facet normal 0 0 1
    outer loop
      vertex 10.894 -1.5 4
      vertex 9.9531 -4.68357 4
      vertex 10.2275 -4.04937 4
    endloop
  endfacet
  facet normal 0 0 1
    outer loop
      vertex 10.894 -1.5 4
      vertex 9.63937 -5.29929 4
      vertex 9.9531 -4.68357 4
    endloop
  endfacet
  facet normal 0 0 1
    outer loop
      vertex 10.894 -1.5 4
      vertex 9.28761 -5.8941 4
      vertex 9.63937 -5.29929 4
    endloop
  endfacet
  facet normal 0 0 1
    outer loop
      vertex 10.894 -1.5 4
      vertex 8.89919 -6.46564 4
      vertex 9.28761 -5.8941 4
    endloop
  endfacet
  facet normal 0 0 1
    outer loop
      vertex 10.894 -1.5 4
      vertex 8.47565 -7.01166 4
      vertex 8.89919 -6.46564 4
    endloop
  endfacet
  facet normal 0 0 1
    outer loop
      vertex 10.894 -1.5 4
      vertex 8.01865 -7.53002 4
      vertex 8.47565 -7.01166 4
    endloop
  endfacet
  facet normal 0 0 1
    outer loop
      vertex 10.894 -1.5 4
      vertex 7.53002 -8.01865 4
      vertex 8.01865 -7.53002 4
    endloop
  endfacet
  facet normal 0 0 1
    outer loop
      vertex 10.894 -1.5 4
      vertex -6.6 -1.5 4
      vertex 7.53002 -8.01865 4
    endloop
  endfacet
  facet normal 0 1 0
    outer loop
      vertex 10.894 -1.5 4
      vertex 10.894 -1.5 2.01
      vertex -6.6 -1.5 4
    endloop
  endfacet
  facet normal 0 1 0
    outer loop
      vertex -6.6 -1.5 4
      vertex 10.894 -1.5 2.01
      vertex -6.6 -1.5 2.01
    endloop
  endfacet
  facet normal 0 0 1
    outer loop
      vertex 10.894 -1.5 2.01
      vertex 10.9133 -1.37867 2.01
      vertex 10.9783 -0.690696 2.01
    endloop
  endfacet
  facet normal 0 0 1
    outer loop
      vertex 10.9783 0.690696 2.01
      vertex 10.894 -1.5 2.01
      vertex 11 0 2.01
    endloop
  endfacet
  facet normal 0 0 1
    outer loop
      vertex 11 0 2.01
      vertex 10.894 -1.5 2.01
      vertex 10.9783 -0.690696 2.01
    endloop
  endfacet
  facet normal 0 0 1
    outer loop
      vertex 10.9133 1.37867 2.01
      vertex 10.894 -1.5 2.01
      vertex 10.9783 0.690696 2.01
    endloop
  endfacet
  facet normal 0 0 1
    outer loop
      vertex 10.894 1.5 2.01
      vertex 10.894 -1.5 2.01
      vertex 10.9133 1.37867 2.01
    endloop
  endfacet
  facet normal 0 0 1
    outer loop
      vertex -6.6 1.5 2.01
      vertex 10.894 -1.5 2.01
      vertex 10.894 1.5 2.01
    endloop
  endfacet
  facet normal 0 0 1
    outer loop
      vertex -6.6 -1.5 2.01
      vertex 10.894 -1.5 2.01
      vertex -6.6 1.5 2.01
    endloop
  endfacet
  facet normal 0 -1 0
    outer loop
      vertex 10.894 1.5 2.01
      vertex 10.894 1.5 4
      vertex -6.6 1.5 4
    endloop
  endfacet
  facet normal 0 -1 0
    outer loop
      vertex -6.6 1.5 2.01
      vertex 10.894 1.5 2.01
      vertex -6.6 1.5 4
    endloop
  endfacet
  facet normal 1 0 0
    outer loop
      vertex -6.6 1.5 2.01
      vertex -6.6 1.5 4
      vertex -6.6 -1.5 4
    endloop
  endfacet
  facet normal 1 0 0
    outer loop
      vertex -6.6 -1.5 2.01
      vertex -6.6 1.5 2.01
      vertex -6.6 -1.5 4
    endloop
  endfacet
endsolid OpenSCAD_Model
