solid OpenSCAD_Model
  facet normal -1 0 0
    outer loop
      vertex -11 -54.5 -2
      vertex -11 -54.5 2
      vertex -11 54.5 -2
    endloop
  endfacet
  facet normal -1 0 0
    outer loop
      vertex -11 54.5 -2
      vertex -11 -54.5 2
      vertex -11 54.5 2
    endloop
  endfacet
  facet normal 0 -1 0
    outer loop
      vertex -11 -54.5 2
      vertex -11 -54.5 -2
      vertex 11 -54.5 -2
    endloop
  endfacet
  facet normal 0 -1 0
    outer loop
      vertex 11 -54.5 2
      vertex -11 -54.5 2
      vertex 11 -54.5 -2
    endloop
  endfacet
  facet normal 0 0 -1
    outer loop
      vertex -11 -54.5 -2
      vertex -11 54.5 -2
      vertex 11 -54.5 -2
    endloop
  endfacet
  facet normal 0 0 -1
    outer loop
      vertex 11 -54.5 -2
      vertex -11 54.5 -2
      vertex 11 54.5 -2
    endloop
  endfacet
  facet normal 0 1 0
    outer loop
      vertex -11 54.5 -2
      vertex -11 54.5 2
      vertex 11 54.5 -2
    endloop
  endfacet
  facet normal 0 1 0
    outer loop
      vertex 11 54.5 -2
      vertex -11 54.5 2
      vertex 11 54.5 2
    endloop
  endfacet
  facet normal 0 0 1
    outer loop
      vertex -6.6 -48.5 2
      vertex -11 -54.5 2
      vertex 11 -54.5 2
    endloop
  endfacet
  facet normal 0 0 1
    outer loop
      vertex -11 54.5 2
      vertex -11 -54.5 2
      vertex -6.6 -48.5 2
    endloop
  endfacet
  facet normal 0 0 1
    outer loop
      vertex -6.6 -45.5 2
      vertex 11 -45.5 2
      vertex -11 54.5 2
    endloop
  endfacet
  facet normal 0 0 1
    outer loop
      vertex -11 54.5 2
      vertex -6.6 -48.5 2
      vertex -6.6 -45.5 2
    endloop
  endfacet
  facet normal 0 0 1
    outer loop
      vertex -6.6 45.5 2
      vertex -11 54.5 2
      vertex 11 -45.5 2
    endloop
  endfacet
  facet normal 0 0 1
    outer loop
      vertex 11 45.5 2
      vertex -6.6 45.5 2
      vertex 11 -45.5 2
    endloop
  endfacet
  facet normal 0 0 1
    outer loop
      vertex -6.6 48.5 2
      vertex -11 54.5 2
      vertex -6.6 45.5 2
    endloop
  endfacet
  facet normal 0 0 1
    outer loop
      vertex 11 54.5 2
      vertex -11 54.5 2
      vertex 11 48.5 2
    endloop
  endfacet
  facet normal 0 0 1
    outer loop
      vertex -6.6 48.5 2
      vertex 11 48.5 2
      vertex -11 54.5 2
    endloop
  endfacet
  facet normal 0 0 1
    outer loop
      vertex 11 -48.5 2
      vertex -6.6 -48.5 2
      vertex 11 -54.5 2
    endloop
  endfacet
  facet normal 1 0 0
    outer loop
      vertex 11 -45.5 0.01
      vertex 11 -54.5 -2
      vertex 11 54.5 -2
    endloop
  endfacet
  facet normal 1 0 0
    outer loop
      vertex 11 -48.5 0.01
      vertex 11 -48.5 2
      vertex 11 -54.5 2
    endloop
  endfacet
  facet normal 1 0 0
    outer loop
      vertex 11 54.5 2
      vertex 11 48.5 2
      vertex 11 54.5 -2
    endloop
  endfacet
  facet normal 1 0 0
    outer loop
      vertex 11 48.5 2
      vertex 11 48.5 0.01
      vertex 11 54.5 -2
    endloop
  endfacet
  facet normal 1 0 0
    outer loop
      vertex 11 -45.5 2
      vertex 11 54.5 -2
      vertex 11 45.5 0.01
    endloop
  endfacet
  facet normal 1 0 0
    outer loop
      vertex 11 48.5 0.01
      vertex 11 45.5 0.01
      vertex 11 54.5 -2
    endloop
  endfacet
  facet normal 1 0 0
    outer loop
      vertex 11 -45.5 2
      vertex 11 -45.5 0.01
      vertex 11 54.5 -2
    endloop
  endfacet
  facet normal 1 0 0
    outer loop
      vertex 11 -48.5 0.01
      vertex 11 -54.5 -2
      vertex 11 -45.5 0.01
    endloop
  endfacet
  facet normal 1 0 0
    outer loop
      vertex 11 -54.5 2
      vertex 11 -54.5 -2
      vertex 11 -48.5 0.01
    endloop
  endfacet
  facet normal 1 0 0
    outer loop
      vertex 11 45.5 0.01
      vertex 11 45.5 2
      vertex 11 -45.5 2
    endloop
  endfacet
  facet normal 0 -1 0
    outer loop
      vertex 11 48.5 0.01
      vertex 11 48.5 2
      vertex -6.6 48.5 2
    endloop
  endfacet
  facet normal 0 -1 0
    outer loop
      vertex -6.6 48.5 0.01
      vertex 11 48.5 0.01
      vertex -6.6 48.5 2
    endloop
  endfacet
  facet normal 1 0 0
    outer loop
      vertex -6.6 48.5 0.01
      vertex -6.6 48.5 2
      vertex -6.6 45.5 2
    endloop
  endfacet
  facet normal 1 0 0
    outer loop
      vertex -6.6 45.5 0.01
      vertex -6.6 48.5 0.01
      vertex -6.6 45.5 2
    endloop
  endfacet
  facet normal 0 1 0
    outer loop
      vertex 11 45.5 2
      vertex 11 45.5 0.01
      vertex -6.6 45.5 2
    endloop
  endfacet
  facet normal 0 1 0
    outer loop
      vertex -6.6 45.5 2
      vertex 11 45.5 0.01
      vertex -6.6 45.5 0.01
    endloop
  endfacet
  facet normal 0 -1 0
    outer loop
      vertex 11 -45.5 0.01
      vertex 11 -45.5 2
      vertex -6.6 -45.5 2
    endloop
  endfacet
  facet normal 0 -1 0
    outer loop
      vertex -6.6 -45.5 0.01
      vertex 11 -45.5 0.01
      vertex -6.6 -45.5 2
    endloop
  endfacet
  facet normal 1 0 0
    outer loop
      vertex -6.6 -45.5 0.01
      vertex -6.6 -45.5 2
      vertex -6.6 -48.5 2
    endloop
  endfacet
  facet normal 1 0 0
    outer loop
      vertex -6.6 -48.5 0.01
      vertex -6.6 -45.5 0.01
      vertex -6.6 -48.5 2
    endloop
  endfacet
  facet normal 0 1 0
    outer loop
      vertex 11 -48.5 2
      vertex 11 -48.5 0.01
      vertex -6.6 -48.5 2
    endloop
  endfacet
  facet normal 0 1 0
    outer loop
      vertex -6.6 -48.5 2
      vertex 11 -48.5 0.01
      vertex -6.6 -48.5 0.01
    endloop
  endfacet
  facet normal 0 0 1
    outer loop
      vertex 11 -48.5 0.01
      vertex 11 -45.5 0.01
      vertex -6.6 -45.5 0.01
    endloop
  endfacet
  facet normal 0 0 1
    outer loop
      vertex -6.6 -48.5 0.01
      vertex 11 -48.5 0.01
      vertex -6.6 -45.5 0.01
    endloop
  endfacet
  facet normal 0 0 1
    outer loop
      vertex 11 45.5 0.01
      vertex 11 48.5 0.01
      vertex -6.6 48.5 0.01
    endloop
  endfacet
  facet normal 0 0 1
    outer loop
      vertex -6.6 45.5 0.01
      vertex 11 45.5 0.01
      vertex -6.6 48.5 0.01
    endloop
  endfacet
endsolid OpenSCAD_Model
