solid Default
  facet normal -1.000000e+00 -8.881784e-16 -0.000000e+00
    outer loop
      vertex -4.762496e+00 2.725469e+00 4.762500e+00
      vertex -4.762496e+00 2.725469e+00 0.000000e+00
      vertex -4.762496e+00 -2.037031e+00 4.762500e+00
    endloop
  endfacet
  facet normal -1.000000e+00 -8.881784e-16 0.000000e+00
    outer loop
      vertex -4.762496e+00 -2.037031e+00 4.762500e+00
      vertex -4.762496e+00 2.725469e+00 0.000000e+00
      vertex -4.762496e+00 -2.037031e+00 0.000000e+00
    endloop
  endfacet
  facet normal 0.000000e+00 1.000000e+00 0.000000e+00
    outer loop
      vertex -4.762496e+00 -2.037031e+00 4.762500e+00
      vertex -4.762496e+00 -2.037031e+00 0.000000e+00
      vertex -1.428750e+01 -2.037031e+00 4.762500e+00
    endloop
  endfacet
  facet normal 0.000000e+00 1.000000e+00 0.000000e+00
    outer loop
      vertex -1.428750e+01 -2.037031e+00 4.762500e+00
      vertex -4.762496e+00 -2.037031e+00 0.000000e+00
      vertex -1.428750e+01 -2.037031e+00 0.000000e+00
    endloop
  endfacet
  facet normal 1.000000e+00 0.000000e+00 0.000000e+00
    outer loop
      vertex -1.428750e+01 -2.037031e+00 4.762500e+00
      vertex -1.428750e+01 -2.037031e+00 0.000000e+00
      vertex -1.428750e+01 2.725469e+00 4.762500e+00
    endloop
  endfacet
  facet normal 1.000000e+00 0.000000e+00 0.000000e+00
    outer loop
      vertex -1.428750e+01 2.725469e+00 4.762500e+00
      vertex -1.428750e+01 -2.037031e+00 0.000000e+00
      vertex -1.428750e+01 2.725469e+00 0.000000e+00
    endloop
  endfacet
  facet normal 0.000000e+00 -1.000000e+00 0.000000e+00
    outer loop
      vertex -1.428750e+01 2.725469e+00 4.762500e+00
      vertex -1.428750e+01 2.725469e+00 0.000000e+00
      vertex -4.762496e+00 2.725469e+00 4.762500e+00
    endloop
  endfacet
  facet normal 0.000000e+00 -1.000000e+00 0.000000e+00
    outer loop
      vertex -4.762496e+00 2.725469e+00 4.762500e+00
      vertex -1.428750e+01 2.725469e+00 0.000000e+00
      vertex -4.762496e+00 2.725469e+00 0.000000e+00
    endloop
  endfacet
  facet normal -1.554312e-15 1.000000e+00 0.000000e+00
    outer loop
      vertex 1.428750e+01 -2.037031e+00 4.762500e+00
      vertex 1.428750e+01 -2.037031e+00 0.000000e+00
      vertex 4.762504e+00 -2.037031e+00 4.762500e+00
    endloop
  endfacet
  facet normal -1.554312e-15 1.000000e+00 0.000000e+00
    outer loop
      vertex 4.762504e+00 -2.037031e+00 4.762500e+00
      vertex 1.428750e+01 -2.037031e+00 0.000000e+00
      vertex 4.762504e+00 -2.037031e+00 0.000000e+00
    endloop
  endfacet
  facet normal 1.000000e+00 7.216451e-16 0.000000e+00
    outer loop
      vertex 4.762504e+00 -2.037031e+00 4.762500e+00
      vertex 4.762504e+00 -2.037031e+00 0.000000e+00
      vertex 4.762504e+00 2.725469e+00 4.762500e+00
    endloop
  endfacet
  facet normal 1.000000e+00 7.216451e-16 0.000000e+00
    outer loop
      vertex 4.762504e+00 2.725469e+00 4.762500e+00
      vertex 4.762504e+00 -2.037031e+00 0.000000e+00
      vertex 4.762504e+00 2.725469e+00 0.000000e+00
    endloop
  endfacet
  facet normal 1.332268e-15 -1.000000e+00 0.000000e+00
    outer loop
      vertex 4.762504e+00 2.725469e+00 4.762500e+00
      vertex 4.762504e+00 2.725469e+00 0.000000e+00
      vertex 1.428750e+01 2.725469e+00 4.762500e+00
    endloop
  endfacet
  facet normal 1.332268e-15 -1.000000e+00 0.000000e+00
    outer loop
      vertex 1.428750e+01 2.725469e+00 4.762500e+00
      vertex 4.762504e+00 2.725469e+00 0.000000e+00
      vertex 1.428750e+01 2.725469e+00 0.000000e+00
    endloop
  endfacet
  facet normal -1.000000e+00 -1.332268e-15 -0.000000e+00
    outer loop
      vertex 1.428750e+01 2.725469e+00 4.762500e+00
      vertex 1.428750e+01 2.725469e+00 0.000000e+00
      vertex 1.428750e+01 -2.037031e+00 4.762500e+00
    endloop
  endfacet
  facet normal -1.000000e+00 -1.332268e-15 0.000000e+00
    outer loop
      vertex 1.428750e+01 -2.037031e+00 4.762500e+00
      vertex 1.428750e+01 2.725469e+00 0.000000e+00
      vertex 1.428750e+01 -2.037031e+00 0.000000e+00
    endloop
  endfacet
  facet normal 1.000000e+00 3.367694e-16 0.000000e+00
    outer loop
      vertex -2.381245e+00 1.701296e+01 4.762500e+00
      vertex -2.381245e+00 1.701296e+01 0.000000e+00
      vertex -2.381245e+00 2.015307e+01 4.762500e+00
    endloop
  endfacet
  facet normal 1.000000e+00 3.367694e-16 0.000000e+00
    outer loop
      vertex -2.381245e+00 2.015307e+01 4.762500e+00
      vertex -2.381245e+00 1.701296e+01 0.000000e+00
      vertex -2.381245e+00 2.015307e+01 0.000000e+00
    endloop
  endfacet
  facet normal -1.776357e-15 -1.000000e+00 -0.000000e+00
    outer loop
      vertex -2.381245e+00 2.015307e+01 4.762500e+00
      vertex -2.381245e+00 2.015307e+01 0.000000e+00
      vertex 2.381254e+00 2.015307e+01 4.762500e+00
    endloop
  endfacet
  facet normal -1.776357e-15 -1.000000e+00 0.000000e+00
    outer loop
      vertex 2.381254e+00 2.015307e+01 4.762500e+00
      vertex -2.381245e+00 2.015307e+01 0.000000e+00
      vertex 2.381254e+00 2.015307e+01 0.000000e+00
    endloop
  endfacet
  facet normal -1.000000e+00 -2.525771e-16 -0.000000e+00
    outer loop
      vertex 2.381254e+00 2.015307e+01 4.762500e+00
      vertex 2.381254e+00 2.015307e+01 0.000000e+00
      vertex 2.381254e+00 1.701296e+01 4.762500e+00
    endloop
  endfacet
  facet normal -1.000000e+00 -2.525771e-16 0.000000e+00
    outer loop
      vertex 2.381254e+00 1.701296e+01 4.762500e+00
      vertex 2.381254e+00 2.015307e+01 0.000000e+00
      vertex 2.381254e+00 1.701296e+01 0.000000e+00
    endloop
  endfacet
  facet normal 0.000000e+00 1.000000e+00 0.000000e+00
    outer loop
      vertex 2.381254e+00 1.701296e+01 4.762500e+00
      vertex 2.381254e+00 1.701296e+01 0.000000e+00
      vertex -2.381245e+00 1.701296e+01 4.762500e+00
    endloop
  endfacet
  facet normal 0.000000e+00 1.000000e+00 0.000000e+00
    outer loop
      vertex -2.381245e+00 1.701296e+01 4.762500e+00
      vertex 2.381254e+00 1.701296e+01 0.000000e+00
      vertex -2.381245e+00 1.701296e+01 0.000000e+00
    endloop
  endfacet
  facet normal -8.881784e-16 1.000000e+00 0.000000e+00
    outer loop
      vertex 4.762504e+00 1.701296e+01 0.000000e+00
      vertex 4.762504e+00 1.701296e+01 4.762500e+00
      vertex 9.525004e+00 1.701296e+01 0.000000e+00
    endloop
  endfacet
  facet normal -8.881784e-16 1.000000e+00 0.000000e+00
    outer loop
      vertex 9.525004e+00 1.701296e+01 0.000000e+00
      vertex 4.762504e+00 1.701296e+01 4.762500e+00
      vertex 9.525004e+00 1.701296e+01 4.762500e+00
    endloop
  endfacet
  facet normal 0.000000e+00 1.000000e+00 0.000000e+00
    outer loop
      vertex -4.762496e+00 1.701296e+01 4.762500e+00
      vertex -4.762496e+00 1.701296e+01 0.000000e+00
      vertex -9.524995e+00 1.701296e+01 4.762500e+00
    endloop
  endfacet
  facet normal 0.000000e+00 1.000000e+00 0.000000e+00
    outer loop
      vertex -9.524995e+00 1.701296e+01 4.762500e+00
      vertex -4.762496e+00 1.701296e+01 0.000000e+00
      vertex -9.524995e+00 1.701296e+01 0.000000e+00
    endloop
  endfacet
  facet normal 1.000000e+00 2.220446e-16 0.000000e+00
    outer loop
      vertex 9.525004e+00 1.225046e+01 4.762500e+00
      vertex 9.525004e+00 1.225046e+01 0.000000e+00
      vertex 9.525004e+00 1.701296e+01 4.762500e+00
    endloop
  endfacet
  facet normal 1.000000e+00 2.220446e-16 0.000000e+00
    outer loop
      vertex 9.525004e+00 1.701296e+01 4.762500e+00
      vertex 9.525004e+00 1.225046e+01 0.000000e+00
      vertex 9.525004e+00 1.701296e+01 0.000000e+00
    endloop
  endfacet
  facet normal -1.480297e-15 1.000000e+00 0.000000e+00
    outer loop
      vertex 2.381250e+01 1.225046e+01 4.762500e+00
      vertex 2.381250e+01 1.225046e+01 0.000000e+00
      vertex 9.525004e+00 1.225046e+01 4.762500e+00
    endloop
  endfacet
  facet normal -1.480297e-15 1.000000e+00 0.000000e+00
    outer loop
      vertex 9.525004e+00 1.225046e+01 4.762500e+00
      vertex 2.381250e+01 1.225046e+01 0.000000e+00
      vertex 9.525004e+00 1.225046e+01 0.000000e+00
    endloop
  endfacet
  facet normal 1.000000e+00 1.776357e-15 0.000000e+00
    outer loop
      vertex 2.381250e+01 7.487962e+00 4.762500e+00
      vertex 2.381250e+01 7.487962e+00 0.000000e+00
      vertex 2.381250e+01 1.225046e+01 4.762500e+00
    endloop
  endfacet
  facet normal 1.000000e+00 1.776357e-15 0.000000e+00
    outer loop
      vertex 2.381250e+01 1.225046e+01 4.762500e+00
      vertex 2.381250e+01 7.487962e+00 0.000000e+00
      vertex 2.381250e+01 1.225046e+01 0.000000e+00
    endloop
  endfacet
  facet normal -8.881784e-16 1.000000e+00 0.000000e+00
    outer loop
      vertex 2.857500e+01 7.487962e+00 4.762500e+00
      vertex 2.857500e+01 7.487962e+00 0.000000e+00
      vertex 2.381250e+01 7.487962e+00 4.762500e+00
    endloop
  endfacet
  facet normal -8.881784e-16 1.000000e+00 0.000000e+00
    outer loop
      vertex 2.381250e+01 7.487962e+00 4.762500e+00
      vertex 2.857500e+01 7.487962e+00 0.000000e+00
      vertex 2.381250e+01 7.487962e+00 0.000000e+00
    endloop
  endfacet
  facet normal 1.000000e+00 1.480297e-15 0.000000e+00
    outer loop
      vertex 2.857500e+01 -6.799531e+00 4.762500e+00
      vertex 2.857500e+01 -6.799531e+00 0.000000e+00
      vertex 2.857500e+01 7.487962e+00 4.762500e+00
    endloop
  endfacet
  facet normal 1.000000e+00 1.480297e-15 0.000000e+00
    outer loop
      vertex 2.857500e+01 7.487962e+00 4.762500e+00
      vertex 2.857500e+01 -6.799531e+00 0.000000e+00
      vertex 2.857500e+01 7.487962e+00 0.000000e+00
    endloop
  endfacet
  facet normal 6.661339e-16 -1.000000e+00 0.000000e+00
    outer loop
      vertex 1.905000e+01 -6.799531e+00 4.762500e+00
      vertex 1.905000e+01 -6.799531e+00 0.000000e+00
      vertex 2.857500e+01 -6.799531e+00 4.762500e+00
    endloop
  endfacet
  facet normal 6.661339e-16 -1.000000e+00 0.000000e+00
    outer loop
      vertex 2.857500e+01 -6.799531e+00 4.762500e+00
      vertex 1.905000e+01 -6.799531e+00 0.000000e+00
      vertex 2.857500e+01 -6.799531e+00 0.000000e+00
    endloop
  endfacet
  facet normal 1.000000e+00 1.332268e-15 0.000000e+00
    outer loop
      vertex 1.905000e+01 -1.156203e+01 4.762500e+00
      vertex 1.905000e+01 -1.156203e+01 0.000000e+00
      vertex 1.905000e+01 -6.799531e+00 4.762500e+00
    endloop
  endfacet
  facet normal 1.000000e+00 1.332268e-15 0.000000e+00
    outer loop
      vertex 1.905000e+01 -6.799531e+00 4.762500e+00
      vertex 1.905000e+01 -1.156203e+01 0.000000e+00
      vertex 1.905000e+01 -6.799531e+00 0.000000e+00
    endloop
  endfacet
  facet normal -8.881784e-16 1.000000e+00 0.000000e+00
    outer loop
      vertex 2.381250e+01 -1.156203e+01 4.762500e+00
      vertex 2.381250e+01 -1.156203e+01 0.000000e+00
      vertex 1.905000e+01 -1.156203e+01 4.762500e+00
    endloop
  endfacet
  facet normal -8.881784e-16 1.000000e+00 0.000000e+00
    outer loop
      vertex 1.905000e+01 -1.156203e+01 4.762500e+00
      vertex 2.381250e+01 -1.156203e+01 0.000000e+00
      vertex 1.905000e+01 -1.156203e+01 0.000000e+00
    endloop
  endfacet
  facet normal 1.000000e+00 1.776357e-15 0.000000e+00
    outer loop
      vertex 2.381250e+01 -1.632453e+01 4.762500e+00
      vertex 2.381250e+01 -1.632453e+01 0.000000e+00
      vertex 2.381250e+01 -1.156203e+01 4.762500e+00
    endloop
  endfacet
  facet normal 1.000000e+00 1.776357e-15 0.000000e+00
    outer loop
      vertex 2.381250e+01 -1.156203e+01 4.762500e+00
      vertex 2.381250e+01 -1.632453e+01 0.000000e+00
      vertex 2.381250e+01 -1.156203e+01 0.000000e+00
    endloop
  endfacet
  facet normal 9.714453e-16 -1.000000e+00 0.000000e+00
    outer loop
      vertex 1.905000e+01 -1.632453e+01 4.762500e+00
      vertex 1.905000e+01 -1.632453e+01 0.000000e+00
      vertex 2.381250e+01 -1.632453e+01 4.762500e+00
    endloop
  endfacet
  facet normal 9.714453e-16 -1.000000e+00 0.000000e+00
    outer loop
      vertex 2.381250e+01 -1.632453e+01 4.762500e+00
      vertex 1.905000e+01 -1.632453e+01 0.000000e+00
      vertex 2.381250e+01 -1.632453e+01 0.000000e+00
    endloop
  endfacet
  facet normal 1.000000e+00 1.332268e-15 0.000000e+00
    outer loop
      vertex 1.905000e+01 -2.108703e+01 4.762500e+00
      vertex 1.905000e+01 -2.108703e+01 0.000000e+00
      vertex 1.905000e+01 -1.632453e+01 4.762500e+00
    endloop
  endfacet
  facet normal 1.000000e+00 1.332268e-15 0.000000e+00
    outer loop
      vertex 1.905000e+01 -1.632453e+01 4.762500e+00
      vertex 1.905000e+01 -2.108703e+01 0.000000e+00
      vertex 1.905000e+01 -1.632453e+01 0.000000e+00
    endloop
  endfacet
  facet normal 7.771562e-16 -1.000000e+00 0.000000e+00
    outer loop
      vertex 9.525004e+00 -2.108703e+01 4.762500e+00
      vertex 9.525004e+00 -2.108703e+01 0.000000e+00
      vertex 1.905000e+01 -2.108703e+01 4.762500e+00
    endloop
  endfacet
  facet normal 7.771562e-16 -1.000000e+00 0.000000e+00
    outer loop
      vertex 1.905000e+01 -2.108703e+01 4.762500e+00
      vertex 9.525004e+00 -2.108703e+01 0.000000e+00
      vertex 1.905000e+01 -2.108703e+01 0.000000e+00
    endloop
  endfacet
  facet normal -1.000000e+00 -6.661339e-16 -0.000000e+00
    outer loop
      vertex 9.525004e+00 -1.632453e+01 4.762500e+00
      vertex 9.525004e+00 -1.632453e+01 0.000000e+00
      vertex 9.525004e+00 -2.108703e+01 4.762500e+00
    endloop
  endfacet
  facet normal -1.000000e+00 -6.661339e-16 0.000000e+00
    outer loop
      vertex 9.525004e+00 -2.108703e+01 4.762500e+00
      vertex 9.525004e+00 -1.632453e+01 0.000000e+00
      vertex 9.525004e+00 -2.108703e+01 0.000000e+00
    endloop
  endfacet
  facet normal -1.054712e-15 1.000000e+00 0.000000e+00
    outer loop
      vertex 1.428750e+01 -1.632453e+01 4.762500e+00
      vertex 1.428750e+01 -1.632453e+01 0.000000e+00
      vertex 9.525004e+00 -1.632453e+01 4.762500e+00
    endloop
  endfacet
  facet normal -1.054712e-15 1.000000e+00 0.000000e+00
    outer loop
      vertex 9.525004e+00 -1.632453e+01 4.762500e+00
      vertex 1.428750e+01 -1.632453e+01 0.000000e+00
      vertex 9.525004e+00 -1.632453e+01 0.000000e+00
    endloop
  endfacet
  facet normal -1.000000e+00 -8.881784e-16 -0.000000e+00
    outer loop
      vertex 1.428750e+01 -1.156203e+01 4.762500e+00
      vertex 1.428750e+01 -1.156203e+01 0.000000e+00
      vertex 1.428750e+01 -1.632453e+01 4.762500e+00
    endloop
  endfacet
  facet normal -1.000000e+00 -8.881784e-16 0.000000e+00
    outer loop
      vertex 1.428750e+01 -1.632453e+01 4.762500e+00
      vertex 1.428750e+01 -1.156203e+01 0.000000e+00
      vertex 1.428750e+01 -1.632453e+01 0.000000e+00
    endloop
  endfacet
  facet normal 9.992007e-16 -1.000000e+00 0.000000e+00
    outer loop
      vertex 4.762504e+00 -1.156203e+01 4.762500e+00
      vertex 4.762504e+00 -1.156203e+01 0.000000e+00
      vertex 1.428750e+01 -1.156203e+01 4.762500e+00
    endloop
  endfacet
  facet normal 9.992007e-16 -1.000000e+00 0.000000e+00
    outer loop
      vertex 1.428750e+01 -1.156203e+01 4.762500e+00
      vertex 4.762504e+00 -1.156203e+01 0.000000e+00
      vertex 1.428750e+01 -1.156203e+01 0.000000e+00
    endloop
  endfacet
  facet normal -1.000000e+00 -7.216451e-16 -0.000000e+00
    outer loop
      vertex 4.762504e+00 -6.799531e+00 4.762500e+00
      vertex 4.762504e+00 -6.799531e+00 0.000000e+00
      vertex 4.762504e+00 -1.156203e+01 4.762500e+00
    endloop
  endfacet
  facet normal -1.000000e+00 -7.216451e-16 0.000000e+00
    outer loop
      vertex 4.762504e+00 -1.156203e+01 4.762500e+00
      vertex 4.762504e+00 -6.799531e+00 0.000000e+00
      vertex 4.762504e+00 -1.156203e+01 0.000000e+00
    endloop
  endfacet
  facet normal 7.771562e-16 -1.000000e+00 0.000000e+00
    outer loop
      vertex -4.762496e+00 -6.799531e+00 4.762500e+00
      vertex -4.762496e+00 -6.799531e+00 0.000000e+00
      vertex 4.762504e+00 -6.799531e+00 4.762500e+00
    endloop
  endfacet
  facet normal 7.771562e-16 -1.000000e+00 0.000000e+00
    outer loop
      vertex 4.762504e+00 -6.799531e+00 4.762500e+00
      vertex -4.762496e+00 -6.799531e+00 0.000000e+00
      vertex 4.762504e+00 -6.799531e+00 0.000000e+00
    endloop
  endfacet
  facet normal 1.000000e+00 6.661339e-16 0.000000e+00
    outer loop
      vertex -4.762496e+00 -1.156203e+01 4.762500e+00
      vertex -4.762496e+00 -1.156203e+01 0.000000e+00
      vertex -4.762496e+00 -6.799531e+00 4.762500e+00
    endloop
  endfacet
  facet normal 1.000000e+00 6.661339e-16 0.000000e+00
    outer loop
      vertex -4.762496e+00 -6.799531e+00 4.762500e+00
      vertex -4.762496e+00 -1.156203e+01 0.000000e+00
      vertex -4.762496e+00 -6.799531e+00 0.000000e+00
    endloop
  endfacet
  facet normal 4.440892e-16 -1.000000e+00 0.000000e+00
    outer loop
      vertex -1.428750e+01 -1.156203e+01 4.762500e+00
      vertex -1.428750e+01 -1.156203e+01 0.000000e+00
      vertex -4.762496e+00 -1.156203e+01 4.762500e+00
    endloop
  endfacet
  facet normal 4.440892e-16 -1.000000e+00 0.000000e+00
    outer loop
      vertex -4.762496e+00 -1.156203e+01 4.762500e+00
      vertex -1.428750e+01 -1.156203e+01 0.000000e+00
      vertex -4.762496e+00 -1.156203e+01 0.000000e+00
    endloop
  endfacet
  facet normal 1.000000e+00 4.440892e-16 0.000000e+00
    outer loop
      vertex -1.428750e+01 -1.632453e+01 4.762500e+00
      vertex -1.428750e+01 -1.632453e+01 0.000000e+00
      vertex -1.428750e+01 -1.156203e+01 4.762500e+00
    endloop
  endfacet
  facet normal 1.000000e+00 4.440892e-16 0.000000e+00
    outer loop
      vertex -1.428750e+01 -1.156203e+01 4.762500e+00
      vertex -1.428750e+01 -1.632453e+01 0.000000e+00
      vertex -1.428750e+01 -1.156203e+01 0.000000e+00
    endloop
  endfacet
  facet normal -3.330669e-16 1.000000e+00 0.000000e+00
    outer loop
      vertex -9.524995e+00 -1.632453e+01 4.762500e+00
      vertex -9.524995e+00 -1.632453e+01 0.000000e+00
      vertex -1.428750e+01 -1.632453e+01 4.762500e+00
    endloop
  endfacet
  facet normal -3.330669e-16 1.000000e+00 0.000000e+00
    outer loop
      vertex -1.428750e+01 -1.632453e+01 4.762500e+00
      vertex -9.524995e+00 -1.632453e+01 0.000000e+00
      vertex -1.428750e+01 -1.632453e+01 0.000000e+00
    endloop
  endfacet
  facet normal 1.000000e+00 4.440892e-16 0.000000e+00
    outer loop
      vertex -9.524995e+00 -2.108703e+01 4.762500e+00
      vertex -9.524995e+00 -2.108703e+01 0.000000e+00
      vertex -9.524995e+00 -1.632453e+01 4.762500e+00
    endloop
  endfacet
  facet normal 1.000000e+00 4.440892e-16 0.000000e+00
    outer loop
      vertex -9.524995e+00 -1.632453e+01 4.762500e+00
      vertex -9.524995e+00 -2.108703e+01 0.000000e+00
      vertex -9.524995e+00 -1.632453e+01 0.000000e+00
    endloop
  endfacet
  facet normal 5.551116e-16 -1.000000e+00 0.000000e+00
    outer loop
      vertex -1.905000e+01 -2.108703e+01 4.762500e+00
      vertex -1.905000e+01 -2.108703e+01 0.000000e+00
      vertex -9.524995e+00 -2.108703e+01 4.762500e+00
    endloop
  endfacet
  facet normal 5.551116e-16 -1.000000e+00 0.000000e+00
    outer loop
      vertex -9.524995e+00 -2.108703e+01 4.762500e+00
      vertex -1.905000e+01 -2.108703e+01 0.000000e+00
      vertex -9.524995e+00 -2.108703e+01 0.000000e+00
    endloop
  endfacet
  facet normal -1.000000e+00 -0.000000e+00 -0.000000e+00
    outer loop
      vertex -1.905000e+01 -1.632453e+01 4.762500e+00
      vertex -1.905000e+01 -1.632453e+01 0.000000e+00
      vertex -1.905000e+01 -2.108703e+01 4.762500e+00
    endloop
  endfacet
  facet normal -1.000000e+00 -0.000000e+00 -0.000000e+00
    outer loop
      vertex -1.905000e+01 -2.108703e+01 4.762500e+00
      vertex -1.905000e+01 -1.632453e+01 0.000000e+00
      vertex -1.905000e+01 -2.108703e+01 0.000000e+00
    endloop
  endfacet
  facet normal 4.440892e-16 -1.000000e+00 0.000000e+00
    outer loop
      vertex -2.381250e+01 -1.632453e+01 4.762500e+00
      vertex -2.381250e+01 -1.632453e+01 0.000000e+00
      vertex -1.905000e+01 -1.632453e+01 4.762500e+00
    endloop
  endfacet
  facet normal 4.440892e-16 -1.000000e+00 0.000000e+00
    outer loop
      vertex -1.905000e+01 -1.632453e+01 4.762500e+00
      vertex -2.381250e+01 -1.632453e+01 0.000000e+00
      vertex -1.905000e+01 -1.632453e+01 0.000000e+00
    endloop
  endfacet
  facet normal -1.000000e+00 -0.000000e+00 -0.000000e+00
    outer loop
      vertex -2.381250e+01 -1.156203e+01 4.762500e+00
      vertex -2.381250e+01 -1.156203e+01 0.000000e+00
      vertex -2.381250e+01 -1.632453e+01 4.762500e+00
    endloop
  endfacet
  facet normal -1.000000e+00 -0.000000e+00 -0.000000e+00
    outer loop
      vertex -2.381250e+01 -1.632453e+01 4.762500e+00
      vertex -2.381250e+01 -1.156203e+01 0.000000e+00
      vertex -2.381250e+01 -1.632453e+01 0.000000e+00
    endloop
  endfacet
  facet normal -4.440892e-16 1.000000e+00 0.000000e+00
    outer loop
      vertex -1.905000e+01 -1.156203e+01 4.762500e+00
      vertex -1.905000e+01 -1.156203e+01 0.000000e+00
      vertex -2.381250e+01 -1.156203e+01 4.762500e+00
    endloop
  endfacet
  facet normal -4.440892e-16 1.000000e+00 0.000000e+00
    outer loop
      vertex -2.381250e+01 -1.156203e+01 4.762500e+00
      vertex -1.905000e+01 -1.156203e+01 0.000000e+00
      vertex -2.381250e+01 -1.156203e+01 0.000000e+00
    endloop
  endfacet
  facet normal -1.000000e+00 -0.000000e+00 -0.000000e+00
    outer loop
      vertex -1.905000e+01 -6.799531e+00 4.762500e+00
      vertex -1.905000e+01 -6.799531e+00 0.000000e+00
      vertex -1.905000e+01 -1.156203e+01 4.762500e+00
    endloop
  endfacet
  facet normal -1.000000e+00 -0.000000e+00 -0.000000e+00
    outer loop
      vertex -1.905000e+01 -1.156203e+01 4.762500e+00
      vertex -1.905000e+01 -6.799531e+00 0.000000e+00
      vertex -1.905000e+01 -1.156203e+01 0.000000e+00
    endloop
  endfacet
  facet normal 7.771562e-16 -1.000000e+00 0.000000e+00
    outer loop
      vertex -2.857500e+01 -6.799531e+00 4.762500e+00
      vertex -2.857500e+01 -6.799531e+00 0.000000e+00
      vertex -1.905000e+01 -6.799531e+00 4.762500e+00
    endloop
  endfacet
  facet normal 7.771562e-16 -1.000000e+00 0.000000e+00
    outer loop
      vertex -1.905000e+01 -6.799531e+00 4.762500e+00
      vertex -2.857500e+01 -6.799531e+00 0.000000e+00
      vertex -1.905000e+01 -6.799531e+00 0.000000e+00
    endloop
  endfacet
  facet normal -1.000000e+00 -0.000000e+00 -0.000000e+00
    outer loop
      vertex -2.857500e+01 7.487962e+00 4.762500e+00
      vertex -2.857500e+01 7.487962e+00 0.000000e+00
      vertex -2.857500e+01 -6.799531e+00 4.762500e+00
    endloop
  endfacet
  facet normal -1.000000e+00 -0.000000e+00 -0.000000e+00
    outer loop
      vertex -2.857500e+01 -6.799531e+00 4.762500e+00
      vertex -2.857500e+01 7.487962e+00 0.000000e+00
      vertex -2.857500e+01 -6.799531e+00 0.000000e+00
    endloop
  endfacet
  facet normal 8.881784e-16 1.000000e+00 0.000000e+00
    outer loop
      vertex -2.381250e+01 7.487962e+00 4.762500e+00
      vertex -2.381250e+01 7.487962e+00 0.000000e+00
      vertex -2.857500e+01 7.487962e+00 4.762500e+00
    endloop
  endfacet
  facet normal 8.881784e-16 1.000000e+00 0.000000e+00
    outer loop
      vertex -2.857500e+01 7.487962e+00 4.762500e+00
      vertex -2.381250e+01 7.487962e+00 0.000000e+00
      vertex -2.857500e+01 7.487962e+00 0.000000e+00
    endloop
  endfacet
  facet normal -1.000000e+00 -0.000000e+00 -0.000000e+00
    outer loop
      vertex -2.381250e+01 1.225046e+01 4.762500e+00
      vertex -2.381250e+01 1.225046e+01 0.000000e+00
      vertex -2.381250e+01 7.487962e+00 4.762500e+00
    endloop
  endfacet
  facet normal -1.000000e+00 -0.000000e+00 -0.000000e+00
    outer loop
      vertex -2.381250e+01 7.487962e+00 4.762500e+00
      vertex -2.381250e+01 1.225046e+01 0.000000e+00
      vertex -2.381250e+01 7.487962e+00 0.000000e+00
    endloop
  endfacet
  facet normal -2.960595e-16 1.000000e+00 0.000000e+00
    outer loop
      vertex -9.524995e+00 1.225046e+01 4.762500e+00
      vertex -9.524995e+00 1.225046e+01 0.000000e+00
      vertex -2.381250e+01 1.225046e+01 4.762500e+00
    endloop
  endfacet
  facet normal -2.960595e-16 1.000000e+00 0.000000e+00
    outer loop
      vertex -2.381250e+01 1.225046e+01 4.762500e+00
      vertex -9.524995e+00 1.225046e+01 0.000000e+00
      vertex -2.381250e+01 1.225046e+01 0.000000e+00
    endloop
  endfacet
  facet normal -1.000000e+00 -1.332268e-15 -0.000000e+00
    outer loop
      vertex -9.524995e+00 1.701296e+01 4.762500e+00
      vertex -9.524995e+00 1.701296e+01 0.000000e+00
      vertex -9.524995e+00 1.225046e+01 4.762500e+00
    endloop
  endfacet
  facet normal -1.000000e+00 -1.332268e-15 0.000000e+00
    outer loop
      vertex -9.524995e+00 1.225046e+01 4.762500e+00
      vertex -9.524995e+00 1.701296e+01 0.000000e+00
      vertex -9.524995e+00 1.225046e+01 0.000000e+00
    endloop
  endfacet
  facet normal -1.000000e+00 -0.000000e+00 -0.000000e+00
    outer loop
      vertex -4.762496e+00 2.108703e+01 4.762500e+00
      vertex -4.762496e+00 2.108703e+01 0.000000e+00
      vertex -4.762496e+00 1.701296e+01 4.762500e+00
    endloop
  endfacet
  facet normal -1.000000e+00 -0.000000e+00 -0.000000e+00
    outer loop
      vertex -4.762496e+00 1.701296e+01 4.762500e+00
      vertex -4.762496e+00 2.108703e+01 0.000000e+00
      vertex -4.762496e+00 1.701296e+01 0.000000e+00
    endloop
  endfacet
  facet normal 0.000000e+00 1.000000e+00 0.000000e+00
    outer loop
      vertex 4.762504e+00 2.108703e+01 4.762500e+00
      vertex 4.762504e+00 2.108703e+01 0.000000e+00
      vertex -4.762496e+00 2.108703e+01 4.762500e+00
    endloop
  endfacet
  facet normal 0.000000e+00 1.000000e+00 0.000000e+00
    outer loop
      vertex -4.762496e+00 2.108703e+01 4.762500e+00
      vertex 4.762504e+00 2.108703e+01 0.000000e+00
      vertex -4.762496e+00 2.108703e+01 0.000000e+00
    endloop
  endfacet
  facet normal 1.000000e+00 1.946743e-16 0.000000e+00
    outer loop
      vertex 4.762504e+00 1.701296e+01 4.762500e+00
      vertex 4.762504e+00 1.701296e+01 0.000000e+00
      vertex 4.762504e+00 2.108703e+01 4.762500e+00
    endloop
  endfacet
  facet normal 1.000000e+00 1.946743e-16 0.000000e+00
    outer loop
      vertex 4.762504e+00 2.108703e+01 4.762500e+00
      vertex 4.762504e+00 1.701296e+01 0.000000e+00
      vertex 4.762504e+00 2.108703e+01 0.000000e+00
    endloop
  endfacet
  facet normal 0.000000e+00 0.000000e+00 -1.000000e+00
    outer loop
      vertex -4.762496e+00 2.725469e+00 0.000000e+00
      vertex 4.762504e+00 2.725469e+00 0.000000e+00
      vertex -4.762496e+00 -2.037031e+00 0.000000e+00
    endloop
  endfacet
  facet normal 0.000000e+00 0.000000e+00 -1.000000e+00
    outer loop
      vertex -4.762496e+00 2.725469e+00 0.000000e+00
      vertex 2.381254e+00 1.701296e+01 0.000000e+00
      vertex 4.762504e+00 2.725469e+00 0.000000e+00
    endloop
  endfacet
  facet normal 0.000000e+00 0.000000e+00 -1.000000e+00
    outer loop
      vertex -4.762496e+00 2.725469e+00 0.000000e+00
      vertex -2.381245e+00 1.701296e+01 0.000000e+00
      vertex 2.381254e+00 1.701296e+01 0.000000e+00
    endloop
  endfacet
  facet normal 0.000000e+00 0.000000e+00 -1.000000e+00
    outer loop
      vertex -4.762496e+00 2.725469e+00 0.000000e+00
      vertex -9.524995e+00 1.225046e+01 0.000000e+00
      vertex -2.381245e+00 1.701296e+01 0.000000e+00
    endloop
  endfacet
  facet normal 0.000000e+00 0.000000e+00 -1.000000e+00
    outer loop
      vertex -4.762496e+00 2.725469e+00 0.000000e+00
      vertex -1.428750e+01 2.725469e+00 0.000000e+00
      vertex -9.524995e+00 1.225046e+01 0.000000e+00
    endloop
  endfacet
  facet normal 0.000000e+00 0.000000e+00 -1.000000e+00
    outer loop
      vertex -9.524995e+00 1.225046e+01 0.000000e+00
      vertex -1.428750e+01 2.725469e+00 0.000000e+00
      vertex -2.381250e+01 7.487962e+00 0.000000e+00
    endloop
  endfacet
  facet normal 0.000000e+00 0.000000e+00 -1.000000e+00
    outer loop
      vertex -2.381250e+01 1.225046e+01 0.000000e+00
      vertex -9.524995e+00 1.225046e+01 0.000000e+00
      vertex -2.381250e+01 7.487962e+00 0.000000e+00
    endloop
  endfacet
  facet normal -0.000000e+00 -0.000000e+00 -1.000000e+00
    outer loop
      vertex -1.428750e+01 2.725469e+00 0.000000e+00
      vertex -1.428750e+01 -2.037031e+00 0.000000e+00
      vertex -2.381250e+01 7.487962e+00 0.000000e+00
    endloop
  endfacet
  facet normal 0.000000e+00 0.000000e+00 -1.000000e+00
    outer loop
      vertex -2.381250e+01 7.487962e+00 0.000000e+00
      vertex -1.428750e+01 -2.037031e+00 0.000000e+00
      vertex -1.905000e+01 -6.799531e+00 0.000000e+00
    endloop
  endfacet
  facet normal 0.000000e+00 0.000000e+00 -1.000000e+00
    outer loop
      vertex -2.857500e+01 -6.799531e+00 0.000000e+00
      vertex -2.381250e+01 7.487962e+00 0.000000e+00
      vertex -1.905000e+01 -6.799531e+00 0.000000e+00
    endloop
  endfacet
  facet normal 0.000000e+00 0.000000e+00 -1.000000e+00
    outer loop
      vertex -2.857500e+01 -6.799531e+00 0.000000e+00
      vertex -2.857500e+01 7.487962e+00 0.000000e+00
      vertex -2.381250e+01 7.487962e+00 0.000000e+00
    endloop
  endfacet
  facet normal 0.000000e+00 0.000000e+00 -1.000000e+00
    outer loop
      vertex -4.762496e+00 -2.037031e+00 0.000000e+00
      vertex -4.762496e+00 -6.799531e+00 0.000000e+00
      vertex -1.428750e+01 -2.037031e+00 0.000000e+00
    endloop
  endfacet
  facet normal 0.000000e+00 0.000000e+00 -1.000000e+00
    outer loop
      vertex -4.762496e+00 -2.037031e+00 0.000000e+00
      vertex 4.762504e+00 -2.037031e+00 0.000000e+00
      vertex -4.762496e+00 -6.799531e+00 0.000000e+00
    endloop
  endfacet
  facet normal 0.000000e+00 0.000000e+00 -1.000000e+00
    outer loop
      vertex -4.762496e+00 -2.037031e+00 0.000000e+00
      vertex 4.762504e+00 2.725469e+00 0.000000e+00
      vertex 4.762504e+00 -2.037031e+00 0.000000e+00
    endloop
  endfacet
  facet normal 0.000000e+00 0.000000e+00 -1.000000e+00
    outer loop
      vertex -4.762496e+00 -6.799531e+00 0.000000e+00
      vertex 4.762504e+00 -2.037031e+00 0.000000e+00
      vertex 4.762504e+00 -6.799531e+00 0.000000e+00
    endloop
  endfacet
  facet normal 0.000000e+00 0.000000e+00 -1.000000e+00
    outer loop
      vertex 4.762504e+00 -6.799531e+00 0.000000e+00
      vertex 4.762504e+00 -2.037031e+00 0.000000e+00
      vertex 1.428750e+01 -2.037031e+00 0.000000e+00
    endloop
  endfacet
  facet normal 0.000000e+00 0.000000e+00 -1.000000e+00
    outer loop
      vertex 1.428750e+01 -1.156203e+01 0.000000e+00
      vertex 1.428750e+01 -2.037031e+00 0.000000e+00
      vertex 1.905000e+01 -6.799531e+00 0.000000e+00
    endloop
  endfacet
  facet normal 0.000000e+00 0.000000e+00 -1.000000e+00
    outer loop
      vertex 1.905000e+01 -1.156203e+01 0.000000e+00
      vertex 1.428750e+01 -1.156203e+01 0.000000e+00
      vertex 1.905000e+01 -6.799531e+00 0.000000e+00
    endloop
  endfacet
  facet normal 0.000000e+00 0.000000e+00 -1.000000e+00
    outer loop
      vertex 1.905000e+01 -1.156203e+01 0.000000e+00
      vertex 1.428750e+01 -1.632453e+01 0.000000e+00
      vertex 1.428750e+01 -1.156203e+01 0.000000e+00
    endloop
  endfacet
  facet normal 0.000000e+00 0.000000e+00 -1.000000e+00
    outer loop
      vertex 1.905000e+01 -1.156203e+01 0.000000e+00
      vertex 1.905000e+01 -1.632453e+01 0.000000e+00
      vertex 1.428750e+01 -1.632453e+01 0.000000e+00
    endloop
  endfacet
  facet normal 0.000000e+00 0.000000e+00 -1.000000e+00
    outer loop
      vertex 1.905000e+01 -1.156203e+01 0.000000e+00
      vertex 2.381250e+01 -1.632453e+01 0.000000e+00
      vertex 1.905000e+01 -1.632453e+01 0.000000e+00
    endloop
  endfacet
  facet normal 0.000000e+00 0.000000e+00 -1.000000e+00
    outer loop
      vertex 1.905000e+01 -1.156203e+01 0.000000e+00
      vertex 2.381250e+01 -1.156203e+01 0.000000e+00
      vertex 2.381250e+01 -1.632453e+01 0.000000e+00
    endloop
  endfacet
  facet normal 0.000000e+00 0.000000e+00 -1.000000e+00
    outer loop
      vertex 1.905000e+01 -6.799531e+00 0.000000e+00
      vertex 1.428750e+01 -2.037031e+00 0.000000e+00
      vertex 2.381250e+01 7.487962e+00 0.000000e+00
    endloop
  endfacet
  facet normal 0.000000e+00 0.000000e+00 -1.000000e+00
    outer loop
      vertex 2.857500e+01 -6.799531e+00 0.000000e+00
      vertex 2.381250e+01 7.487962e+00 0.000000e+00
      vertex 2.857500e+01 7.487962e+00 0.000000e+00
    endloop
  endfacet
  facet normal 0.000000e+00 0.000000e+00 -1.000000e+00
    outer loop
      vertex 2.857500e+01 -6.799531e+00 0.000000e+00
      vertex 1.905000e+01 -6.799531e+00 0.000000e+00
      vertex 2.381250e+01 7.487962e+00 0.000000e+00
    endloop
  endfacet
  facet normal 0.000000e+00 0.000000e+00 -1.000000e+00
    outer loop
      vertex 4.762504e+00 2.725469e+00 0.000000e+00
      vertex 9.525004e+00 1.225046e+01 0.000000e+00
      vertex 1.428750e+01 2.725469e+00 0.000000e+00
    endloop
  endfacet
  facet normal 0.000000e+00 0.000000e+00 -1.000000e+00
    outer loop
      vertex 4.762504e+00 2.725469e+00 0.000000e+00
      vertex 2.381254e+00 1.701296e+01 0.000000e+00
      vertex 9.525004e+00 1.225046e+01 0.000000e+00
    endloop
  endfacet
  facet normal 0.000000e+00 0.000000e+00 -1.000000e+00
    outer loop
      vertex 9.525004e+00 1.225046e+01 0.000000e+00
      vertex 2.381254e+00 1.701296e+01 0.000000e+00
      vertex 4.762504e+00 1.701296e+01 0.000000e+00
    endloop
  endfacet
  facet normal -0.000000e+00 -0.000000e+00 -1.000000e+00
    outer loop
      vertex 9.525004e+00 1.701296e+01 0.000000e+00
      vertex 9.525004e+00 1.225046e+01 0.000000e+00
      vertex 4.762504e+00 1.701296e+01 0.000000e+00
    endloop
  endfacet
  facet normal 0.000000e+00 0.000000e+00 -1.000000e+00
    outer loop
      vertex -2.381245e+00 1.701296e+01 0.000000e+00
      vertex -4.762496e+00 1.701296e+01 0.000000e+00
      vertex -2.381245e+00 2.015307e+01 0.000000e+00
    endloop
  endfacet
  facet normal 0.000000e+00 0.000000e+00 -1.000000e+00
    outer loop
      vertex -2.381245e+00 1.701296e+01 0.000000e+00
      vertex -9.524995e+00 1.225046e+01 0.000000e+00
      vertex -4.762496e+00 1.701296e+01 0.000000e+00
    endloop
  endfacet
  facet normal 0.000000e+00 0.000000e+00 -1.000000e+00
    outer loop
      vertex -4.762496e+00 1.701296e+01 0.000000e+00
      vertex -9.524995e+00 1.225046e+01 0.000000e+00
      vertex -9.524995e+00 1.701296e+01 0.000000e+00
    endloop
  endfacet
  facet normal 0.000000e+00 0.000000e+00 -1.000000e+00
    outer loop
      vertex 2.381254e+00 1.701296e+01 0.000000e+00
      vertex 2.381254e+00 2.015307e+01 0.000000e+00
      vertex 4.762504e+00 1.701296e+01 0.000000e+00
    endloop
  endfacet
  facet normal 0.000000e+00 0.000000e+00 -1.000000e+00
    outer loop
      vertex 4.762504e+00 1.701296e+01 0.000000e+00
      vertex 2.381254e+00 2.015307e+01 0.000000e+00
      vertex 4.762504e+00 2.108703e+01 0.000000e+00
    endloop
  endfacet
  facet normal 0.000000e+00 0.000000e+00 -1.000000e+00
    outer loop
      vertex 4.762504e+00 2.108703e+01 0.000000e+00
      vertex 2.381254e+00 2.015307e+01 0.000000e+00
      vertex -2.381245e+00 2.015307e+01 0.000000e+00
    endloop
  endfacet
  facet normal 0.000000e+00 0.000000e+00 -1.000000e+00
    outer loop
      vertex -4.762496e+00 2.108703e+01 0.000000e+00
      vertex -2.381245e+00 2.015307e+01 0.000000e+00
      vertex -4.762496e+00 1.701296e+01 0.000000e+00
    endloop
  endfacet
  facet normal 0.000000e+00 0.000000e+00 -1.000000e+00
    outer loop
      vertex -4.762496e+00 2.108703e+01 0.000000e+00
      vertex 4.762504e+00 2.108703e+01 0.000000e+00
      vertex -2.381245e+00 2.015307e+01 0.000000e+00
    endloop
  endfacet
  facet normal -0.000000e+00 -0.000000e+00 -1.000000e+00
    outer loop
      vertex 2.381250e+01 1.225046e+01 0.000000e+00
      vertex 2.381250e+01 7.487962e+00 0.000000e+00
      vertex 9.525004e+00 1.225046e+01 0.000000e+00
    endloop
  endfacet
  facet normal 0.000000e+00 0.000000e+00 -1.000000e+00
    outer loop
      vertex 9.525004e+00 1.225046e+01 0.000000e+00
      vertex 2.381250e+01 7.487962e+00 0.000000e+00
      vertex 1.428750e+01 2.725469e+00 0.000000e+00
    endloop
  endfacet
  facet normal 0.000000e+00 0.000000e+00 -1.000000e+00
    outer loop
      vertex 1.428750e+01 2.725469e+00 0.000000e+00
      vertex 2.381250e+01 7.487962e+00 0.000000e+00
      vertex 1.428750e+01 -2.037031e+00 0.000000e+00
    endloop
  endfacet
  facet normal -0.000000e+00 -0.000000e+00 -1.000000e+00
    outer loop
      vertex 1.905000e+01 -1.632453e+01 0.000000e+00
      vertex 1.905000e+01 -2.108703e+01 0.000000e+00
      vertex 1.428750e+01 -1.632453e+01 0.000000e+00
    endloop
  endfacet
  facet normal 0.000000e+00 0.000000e+00 -1.000000e+00
    outer loop
      vertex 1.428750e+01 -1.632453e+01 0.000000e+00
      vertex 1.905000e+01 -2.108703e+01 0.000000e+00
      vertex 9.525004e+00 -2.108703e+01 0.000000e+00
    endloop
  endfacet
  facet normal 0.000000e+00 0.000000e+00 -1.000000e+00
    outer loop
      vertex 9.525004e+00 -1.632453e+01 0.000000e+00
      vertex 1.428750e+01 -1.632453e+01 0.000000e+00
      vertex 9.525004e+00 -2.108703e+01 0.000000e+00
    endloop
  endfacet
  facet normal 0.000000e+00 0.000000e+00 -1.000000e+00
    outer loop
      vertex 4.762504e+00 -1.156203e+01 0.000000e+00
      vertex 4.762504e+00 -6.799531e+00 0.000000e+00
      vertex 1.428750e+01 -1.156203e+01 0.000000e+00
    endloop
  endfacet
  facet normal 0.000000e+00 0.000000e+00 -1.000000e+00
    outer loop
      vertex 1.428750e+01 -1.156203e+01 0.000000e+00
      vertex 4.762504e+00 -6.799531e+00 0.000000e+00
      vertex 1.428750e+01 -2.037031e+00 0.000000e+00
    endloop
  endfacet
  facet normal 0.000000e+00 0.000000e+00 -1.000000e+00
    outer loop
      vertex -4.762496e+00 -1.156203e+01 0.000000e+00
      vertex -1.428750e+01 -1.156203e+01 0.000000e+00
      vertex -4.762496e+00 -6.799531e+00 0.000000e+00
    endloop
  endfacet
  facet normal 0.000000e+00 0.000000e+00 -1.000000e+00
    outer loop
      vertex -4.762496e+00 -6.799531e+00 0.000000e+00
      vertex -1.428750e+01 -1.156203e+01 0.000000e+00
      vertex -1.428750e+01 -2.037031e+00 0.000000e+00
    endloop
  endfacet
  facet normal 0.000000e+00 0.000000e+00 -1.000000e+00
    outer loop
      vertex -1.428750e+01 -2.037031e+00 0.000000e+00
      vertex -1.428750e+01 -1.156203e+01 0.000000e+00
      vertex -1.905000e+01 -6.799531e+00 0.000000e+00
    endloop
  endfacet
  facet normal 0.000000e+00 0.000000e+00 -1.000000e+00
    outer loop
      vertex -1.905000e+01 -6.799531e+00 0.000000e+00
      vertex -1.428750e+01 -1.156203e+01 0.000000e+00
      vertex -1.905000e+01 -1.156203e+01 0.000000e+00
    endloop
  endfacet
  facet normal 0.000000e+00 0.000000e+00 -1.000000e+00
    outer loop
      vertex -1.905000e+01 -1.156203e+01 0.000000e+00
      vertex -1.428750e+01 -1.156203e+01 0.000000e+00
      vertex -1.428750e+01 -1.632453e+01 0.000000e+00
    endloop
  endfacet
  facet normal 0.000000e+00 0.000000e+00 -1.000000e+00
    outer loop
      vertex -1.905000e+01 -1.632453e+01 0.000000e+00
      vertex -1.428750e+01 -1.632453e+01 0.000000e+00
      vertex -1.905000e+01 -2.108703e+01 0.000000e+00
    endloop
  endfacet
  facet normal 0.000000e+00 0.000000e+00 -1.000000e+00
    outer loop
      vertex -1.905000e+01 -1.632453e+01 0.000000e+00
      vertex -1.905000e+01 -1.156203e+01 0.000000e+00
      vertex -1.428750e+01 -1.632453e+01 0.000000e+00
    endloop
  endfacet
  facet normal 0.000000e+00 0.000000e+00 -1.000000e+00
    outer loop
      vertex -1.905000e+01 -1.632453e+01 0.000000e+00
      vertex -2.381250e+01 -1.632453e+01 0.000000e+00
      vertex -1.905000e+01 -1.156203e+01 0.000000e+00
    endloop
  endfacet
  facet normal 0.000000e+00 0.000000e+00 -1.000000e+00
    outer loop
      vertex -1.905000e+01 -1.156203e+01 0.000000e+00
      vertex -2.381250e+01 -1.632453e+01 0.000000e+00
      vertex -2.381250e+01 -1.156203e+01 0.000000e+00
    endloop
  endfacet
  facet normal -0.000000e+00 -0.000000e+00 -1.000000e+00
    outer loop
      vertex -9.524995e+00 -1.632453e+01 0.000000e+00
      vertex -9.524995e+00 -2.108703e+01 0.000000e+00
      vertex -1.428750e+01 -1.632453e+01 0.000000e+00
    endloop
  endfacet
  facet normal 0.000000e+00 0.000000e+00 -1.000000e+00
    outer loop
      vertex -1.428750e+01 -1.632453e+01 0.000000e+00
      vertex -9.524995e+00 -2.108703e+01 0.000000e+00
      vertex -1.905000e+01 -2.108703e+01 0.000000e+00
    endloop
  endfacet
  facet normal 0.000000e+00 0.000000e+00 1.000000e+00
    outer loop
      vertex -4.762496e+00 -2.037031e+00 4.762500e+00
      vertex 4.762504e+00 -2.037031e+00 4.762500e+00
      vertex -4.762496e+00 2.725469e+00 4.762500e+00
    endloop
  endfacet
  facet normal 0.000000e+00 0.000000e+00 1.000000e+00
    outer loop
      vertex -4.762496e+00 -2.037031e+00 4.762500e+00
      vertex 4.762504e+00 -6.799531e+00 4.762500e+00
      vertex 4.762504e+00 -2.037031e+00 4.762500e+00
    endloop
  endfacet
  facet normal 0.000000e+00 0.000000e+00 1.000000e+00
    outer loop
      vertex -4.762496e+00 -2.037031e+00 4.762500e+00
      vertex -4.762496e+00 -6.799531e+00 4.762500e+00
      vertex 4.762504e+00 -6.799531e+00 4.762500e+00
    endloop
  endfacet
  facet normal 0.000000e+00 0.000000e+00 1.000000e+00
    outer loop
      vertex -4.762496e+00 -2.037031e+00 4.762500e+00
      vertex -1.428750e+01 -2.037031e+00 4.762500e+00
      vertex -4.762496e+00 -6.799531e+00 4.762500e+00
    endloop
  endfacet
  facet normal 0.000000e+00 0.000000e+00 1.000000e+00
    outer loop
      vertex -4.762496e+00 -6.799531e+00 4.762500e+00
      vertex -1.428750e+01 -2.037031e+00 4.762500e+00
      vertex -1.428750e+01 -1.156203e+01 4.762500e+00
    endloop
  endfacet
  facet normal 0.000000e+00 0.000000e+00 1.000000e+00
    outer loop
      vertex -4.762496e+00 -1.156203e+01 4.762500e+00
      vertex -4.762496e+00 -6.799531e+00 4.762500e+00
      vertex -1.428750e+01 -1.156203e+01 4.762500e+00
    endloop
  endfacet
  facet normal 0.000000e+00 0.000000e+00 1.000000e+00
    outer loop
      vertex -1.428750e+01 2.725469e+00 4.762500e+00
      vertex -2.381250e+01 7.487962e+00 4.762500e+00
      vertex -1.428750e+01 -2.037031e+00 4.762500e+00
    endloop
  endfacet
  facet normal 0.000000e+00 0.000000e+00 1.000000e+00
    outer loop
      vertex -1.428750e+01 2.725469e+00 4.762500e+00
      vertex -9.524995e+00 1.225046e+01 4.762500e+00
      vertex -2.381250e+01 7.487962e+00 4.762500e+00
    endloop
  endfacet
  facet normal 0.000000e+00 0.000000e+00 1.000000e+00
    outer loop
      vertex -1.428750e+01 2.725469e+00 4.762500e+00
      vertex -4.762496e+00 2.725469e+00 4.762500e+00
      vertex -9.524995e+00 1.225046e+01 4.762500e+00
    endloop
  endfacet
  facet normal 0.000000e+00 0.000000e+00 1.000000e+00
    outer loop
      vertex -9.524995e+00 1.225046e+01 4.762500e+00
      vertex -4.762496e+00 2.725469e+00 4.762500e+00
      vertex -2.381245e+00 1.701296e+01 4.762500e+00
    endloop
  endfacet
  facet normal 0.000000e+00 0.000000e+00 1.000000e+00
    outer loop
      vertex -4.762496e+00 1.701296e+01 4.762500e+00
      vertex -2.381245e+00 1.701296e+01 4.762500e+00
      vertex -2.381245e+00 2.015307e+01 4.762500e+00
    endloop
  endfacet
  facet normal 0.000000e+00 0.000000e+00 1.000000e+00
    outer loop
      vertex -4.762496e+00 2.108703e+01 4.762500e+00
      vertex -2.381245e+00 2.015307e+01 4.762500e+00
      vertex 2.381254e+00 2.015307e+01 4.762500e+00
    endloop
  endfacet
  facet normal 0.000000e+00 0.000000e+00 1.000000e+00
    outer loop
      vertex 4.762504e+00 2.108703e+01 4.762500e+00
      vertex 2.381254e+00 2.015307e+01 4.762500e+00
      vertex 4.762504e+00 1.701296e+01 4.762500e+00
    endloop
  endfacet
  facet normal 0.000000e+00 0.000000e+00 1.000000e+00
    outer loop
      vertex 4.762504e+00 2.108703e+01 4.762500e+00
      vertex -4.762496e+00 2.108703e+01 4.762500e+00
      vertex 2.381254e+00 2.015307e+01 4.762500e+00
    endloop
  endfacet
  facet normal 0.000000e+00 0.000000e+00 1.000000e+00
    outer loop
      vertex 4.762504e+00 -2.037031e+00 4.762500e+00
      vertex 4.762504e+00 -6.799531e+00 4.762500e+00
      vertex 1.428750e+01 -2.037031e+00 4.762500e+00
    endloop
  endfacet
  facet normal 0.000000e+00 0.000000e+00 1.000000e+00
    outer loop
      vertex 1.428750e+01 -2.037031e+00 4.762500e+00
      vertex 4.762504e+00 -6.799531e+00 4.762500e+00
      vertex 1.428750e+01 -1.156203e+01 4.762500e+00
    endloop
  endfacet
  facet normal 0.000000e+00 0.000000e+00 1.000000e+00
    outer loop
      vertex 1.905000e+01 -6.799531e+00 4.762500e+00
      vertex 1.428750e+01 -1.156203e+01 4.762500e+00
      vertex 1.905000e+01 -1.156203e+01 4.762500e+00
    endloop
  endfacet
  facet normal 0.000000e+00 0.000000e+00 1.000000e+00
    outer loop
      vertex 1.905000e+01 -6.799531e+00 4.762500e+00
      vertex 1.428750e+01 -2.037031e+00 4.762500e+00
      vertex 1.428750e+01 -1.156203e+01 4.762500e+00
    endloop
  endfacet
  facet normal 0.000000e+00 0.000000e+00 1.000000e+00
    outer loop
      vertex 1.905000e+01 -6.799531e+00 4.762500e+00
      vertex 2.381250e+01 7.487962e+00 4.762500e+00
      vertex 1.428750e+01 -2.037031e+00 4.762500e+00
    endloop
  endfacet
  facet normal 0.000000e+00 0.000000e+00 1.000000e+00
    outer loop
      vertex 1.905000e+01 -6.799531e+00 4.762500e+00
      vertex 2.857500e+01 -6.799531e+00 4.762500e+00
      vertex 2.381250e+01 7.487962e+00 4.762500e+00
    endloop
  endfacet
  facet normal 0.000000e+00 0.000000e+00 1.000000e+00
    outer loop
      vertex 2.381250e+01 7.487962e+00 4.762500e+00
      vertex 2.857500e+01 -6.799531e+00 4.762500e+00
      vertex 2.857500e+01 7.487962e+00 4.762500e+00
    endloop
  endfacet
  facet normal 0.000000e+00 0.000000e+00 1.000000e+00
    outer loop
      vertex 4.762504e+00 -2.037031e+00 4.762500e+00
      vertex 4.762504e+00 2.725469e+00 4.762500e+00
      vertex -4.762496e+00 2.725469e+00 4.762500e+00
    endloop
  endfacet
  facet normal 0.000000e+00 0.000000e+00 1.000000e+00
    outer loop
      vertex -4.762496e+00 2.725469e+00 4.762500e+00
      vertex 4.762504e+00 2.725469e+00 4.762500e+00
      vertex -2.381245e+00 1.701296e+01 4.762500e+00
    endloop
  endfacet
  facet normal 0.000000e+00 0.000000e+00 1.000000e+00
    outer loop
      vertex -2.381245e+00 1.701296e+01 4.762500e+00
      vertex 4.762504e+00 2.725469e+00 4.762500e+00
      vertex 2.381254e+00 1.701296e+01 4.762500e+00
    endloop
  endfacet
  facet normal 0.000000e+00 0.000000e+00 1.000000e+00
    outer loop
      vertex 2.381254e+00 1.701296e+01 4.762500e+00
      vertex 4.762504e+00 2.725469e+00 4.762500e+00
      vertex 9.525004e+00 1.225046e+01 4.762500e+00
    endloop
  endfacet
  facet normal 0.000000e+00 0.000000e+00 1.000000e+00
    outer loop
      vertex 4.762504e+00 1.701296e+01 4.762500e+00
      vertex 9.525004e+00 1.225046e+01 4.762500e+00
      vertex 9.525004e+00 1.701296e+01 4.762500e+00
    endloop
  endfacet
  facet normal 0.000000e+00 0.000000e+00 1.000000e+00
    outer loop
      vertex 4.762504e+00 1.701296e+01 4.762500e+00
      vertex 2.381254e+00 1.701296e+01 4.762500e+00
      vertex 9.525004e+00 1.225046e+01 4.762500e+00
    endloop
  endfacet
  facet normal 0.000000e+00 0.000000e+00 1.000000e+00
    outer loop
      vertex 4.762504e+00 1.701296e+01 4.762500e+00
      vertex 2.381254e+00 2.015307e+01 4.762500e+00
      vertex 2.381254e+00 1.701296e+01 4.762500e+00
    endloop
  endfacet
  facet normal 0.000000e+00 0.000000e+00 1.000000e+00
    outer loop
      vertex 4.762504e+00 2.725469e+00 4.762500e+00
      vertex 1.428750e+01 2.725469e+00 4.762500e+00
      vertex 9.525004e+00 1.225046e+01 4.762500e+00
    endloop
  endfacet
  facet normal 0.000000e+00 0.000000e+00 1.000000e+00
    outer loop
      vertex 9.525004e+00 1.225046e+01 4.762500e+00
      vertex 1.428750e+01 2.725469e+00 4.762500e+00
      vertex 2.381250e+01 7.487962e+00 4.762500e+00
    endloop
  endfacet
  facet normal 0.000000e+00 0.000000e+00 1.000000e+00
    outer loop
      vertex 2.381250e+01 1.225046e+01 4.762500e+00
      vertex 9.525004e+00 1.225046e+01 4.762500e+00
      vertex 2.381250e+01 7.487962e+00 4.762500e+00
    endloop
  endfacet
  facet normal 0.000000e+00 0.000000e+00 1.000000e+00
    outer loop
      vertex 1.428750e+01 2.725469e+00 4.762500e+00
      vertex 1.428750e+01 -2.037031e+00 4.762500e+00
      vertex 2.381250e+01 7.487962e+00 4.762500e+00
    endloop
  endfacet
  facet normal 0.000000e+00 0.000000e+00 1.000000e+00
    outer loop
      vertex -9.524995e+00 1.225046e+01 4.762500e+00
      vertex -2.381245e+00 1.701296e+01 4.762500e+00
      vertex -4.762496e+00 1.701296e+01 4.762500e+00
    endloop
  endfacet
  facet normal 0.000000e+00 0.000000e+00 1.000000e+00
    outer loop
      vertex -9.524995e+00 1.701296e+01 4.762500e+00
      vertex -9.524995e+00 1.225046e+01 4.762500e+00
      vertex -4.762496e+00 1.701296e+01 4.762500e+00
    endloop
  endfacet
  facet normal 0.000000e+00 0.000000e+00 1.000000e+00
    outer loop
      vertex -4.762496e+00 1.701296e+01 4.762500e+00
      vertex -2.381245e+00 2.015307e+01 4.762500e+00
      vertex -4.762496e+00 2.108703e+01 4.762500e+00
    endloop
  endfacet
  facet normal 0.000000e+00 0.000000e+00 1.000000e+00
    outer loop
      vertex -9.524995e+00 1.225046e+01 4.762500e+00
      vertex -2.381250e+01 1.225046e+01 4.762500e+00
      vertex -2.381250e+01 7.487962e+00 4.762500e+00
    endloop
  endfacet
  facet normal 0.000000e+00 0.000000e+00 1.000000e+00
    outer loop
      vertex -2.857500e+01 7.487962e+00 4.762500e+00
      vertex -2.857500e+01 -6.799531e+00 4.762500e+00
      vertex -2.381250e+01 7.487962e+00 4.762500e+00
    endloop
  endfacet
  facet normal 0.000000e+00 0.000000e+00 1.000000e+00
    outer loop
      vertex -2.381250e+01 7.487962e+00 4.762500e+00
      vertex -2.857500e+01 -6.799531e+00 4.762500e+00
      vertex -1.905000e+01 -6.799531e+00 4.762500e+00
    endloop
  endfacet
  facet normal 0.000000e+00 0.000000e+00 1.000000e+00
    outer loop
      vertex -1.428750e+01 -2.037031e+00 4.762500e+00
      vertex -1.905000e+01 -6.799531e+00 4.762500e+00
      vertex -1.428750e+01 -1.156203e+01 4.762500e+00
    endloop
  endfacet
  facet normal 0.000000e+00 0.000000e+00 1.000000e+00
    outer loop
      vertex -1.428750e+01 -2.037031e+00 4.762500e+00
      vertex -2.381250e+01 7.487962e+00 4.762500e+00
      vertex -1.905000e+01 -6.799531e+00 4.762500e+00
    endloop
  endfacet
  facet normal 0.000000e+00 0.000000e+00 1.000000e+00
    outer loop
      vertex -1.905000e+01 -6.799531e+00 4.762500e+00
      vertex -1.905000e+01 -1.156203e+01 4.762500e+00
      vertex -1.428750e+01 -1.156203e+01 4.762500e+00
    endloop
  endfacet
  facet normal 0.000000e+00 0.000000e+00 1.000000e+00
    outer loop
      vertex -1.428750e+01 -1.156203e+01 4.762500e+00
      vertex -1.905000e+01 -1.156203e+01 4.762500e+00
      vertex -1.428750e+01 -1.632453e+01 4.762500e+00
    endloop
  endfacet
  facet normal 0.000000e+00 0.000000e+00 1.000000e+00
    outer loop
      vertex -1.428750e+01 -1.632453e+01 4.762500e+00
      vertex -1.905000e+01 -1.156203e+01 4.762500e+00
      vertex -1.905000e+01 -1.632453e+01 4.762500e+00
    endloop
  endfacet
  facet normal 0.000000e+00 0.000000e+00 1.000000e+00
    outer loop
      vertex -1.905000e+01 -2.108703e+01 4.762500e+00
      vertex -1.428750e+01 -1.632453e+01 4.762500e+00
      vertex -1.905000e+01 -1.632453e+01 4.762500e+00
    endloop
  endfacet
  facet normal 0.000000e+00 0.000000e+00 1.000000e+00
    outer loop
      vertex -1.905000e+01 -2.108703e+01 4.762500e+00
      vertex -9.524995e+00 -2.108703e+01 4.762500e+00
      vertex -1.428750e+01 -1.632453e+01 4.762500e+00
    endloop
  endfacet
  facet normal 0.000000e+00 0.000000e+00 1.000000e+00
    outer loop
      vertex -1.428750e+01 -1.632453e+01 4.762500e+00
      vertex -9.524995e+00 -2.108703e+01 4.762500e+00
      vertex -9.524995e+00 -1.632453e+01 4.762500e+00
    endloop
  endfacet
  facet normal 0.000000e+00 0.000000e+00 1.000000e+00
    outer loop
      vertex -1.905000e+01 -1.156203e+01 4.762500e+00
      vertex -2.381250e+01 -1.156203e+01 4.762500e+00
      vertex -1.905000e+01 -1.632453e+01 4.762500e+00
    endloop
  endfacet
  facet normal 0.000000e+00 0.000000e+00 1.000000e+00
    outer loop
      vertex -1.905000e+01 -1.632453e+01 4.762500e+00
      vertex -2.381250e+01 -1.156203e+01 4.762500e+00
      vertex -2.381250e+01 -1.632453e+01 4.762500e+00
    endloop
  endfacet
  facet normal 0.000000e+00 0.000000e+00 1.000000e+00
    outer loop
      vertex 4.762504e+00 -6.799531e+00 4.762500e+00
      vertex 4.762504e+00 -1.156203e+01 4.762500e+00
      vertex 1.428750e+01 -1.156203e+01 4.762500e+00
    endloop
  endfacet
  facet normal 0.000000e+00 0.000000e+00 1.000000e+00
    outer loop
      vertex 1.428750e+01 -1.156203e+01 4.762500e+00
      vertex 1.428750e+01 -1.632453e+01 4.762500e+00
      vertex 1.905000e+01 -1.156203e+01 4.762500e+00
    endloop
  endfacet
  facet normal 0.000000e+00 0.000000e+00 1.000000e+00
    outer loop
      vertex 1.905000e+01 -1.156203e+01 4.762500e+00
      vertex 1.428750e+01 -1.632453e+01 4.762500e+00
      vertex 1.905000e+01 -1.632453e+01 4.762500e+00
    endloop
  endfacet
  facet normal 0.000000e+00 0.000000e+00 1.000000e+00
    outer loop
      vertex 2.381250e+01 -1.632453e+01 4.762500e+00
      vertex 1.905000e+01 -1.156203e+01 4.762500e+00
      vertex 1.905000e+01 -1.632453e+01 4.762500e+00
    endloop
  endfacet
  facet normal 0.000000e+00 0.000000e+00 1.000000e+00
    outer loop
      vertex 2.381250e+01 -1.632453e+01 4.762500e+00
      vertex 2.381250e+01 -1.156203e+01 4.762500e+00
      vertex 1.905000e+01 -1.156203e+01 4.762500e+00
    endloop
  endfacet
  facet normal 0.000000e+00 0.000000e+00 1.000000e+00
    outer loop
      vertex 9.525004e+00 -1.632453e+01 4.762500e+00
      vertex 9.525004e+00 -2.108703e+01 4.762500e+00
      vertex 1.428750e+01 -1.632453e+01 4.762500e+00
    endloop
  endfacet
  facet normal 0.000000e+00 0.000000e+00 1.000000e+00
    outer loop
      vertex 1.428750e+01 -1.632453e+01 4.762500e+00
      vertex 9.525004e+00 -2.108703e+01 4.762500e+00
      vertex 1.905000e+01 -2.108703e+01 4.762500e+00
    endloop
  endfacet
  facet normal 0.000000e+00 0.000000e+00 1.000000e+00
    outer loop
      vertex 1.905000e+01 -1.632453e+01 4.762500e+00
      vertex 1.428750e+01 -1.632453e+01 4.762500e+00
      vertex 1.905000e+01 -2.108703e+01 4.762500e+00
    endloop
  endfacet
endsolid Default
